<svg width="200" height="189" xmlns="http://www.w3.org/2000/svg"><g fill-rule="nonzero" fill="none"><g fill="#000"><path d="M72.04 1.03c6.51 5.66 11.41 13.89 15.82 21.2 1.45 2.9 5.1 1.72 7.73 1.95.23-4.92.87-9.58 2.14-14.34-.06 1.94-.06 3.89-.17 5.83-.4 3.08-.92 6.05-.96 9.17l-.87-.15c-4.55-.14-8.96-.07-13.42.88-1.51-8.2-4.51-16.3-9.72-22.89l-.81 1.57c-.52.99-1.02 1.99-1.52 2.99.43-2.12.96-4.21 1.78-6.21z" stroke="#D8E1EB"/><path d="M101.5.37c1.53 1.85 3.07 3.69 4.5 5.61 1.06 2.65 1.97 5.35 3.02 8a64.06 64.06 0 0 0-2.87-2.84c-.24 2.56-.41 5.1-.29 7.67-1.05 1.08-2.1 2.16-3.14 3.26-1.44-2.36-3.22-4.43-5.16-6.4.11-1.94.11-3.89.17-5.83.64-3.48 1.6-6.62 3.77-9.47z" stroke="#A74A7C"/><path d="M72.59 2.68c5.21 6.59 8.21 14.69 9.72 22.89-1.85.58-3.66 1.24-5.43 2.02-1.58-6.16-1.08-12.47-3.26-18.35-.59-1.67-1.25-3.32-1.84-4.99l.81-1.57z" stroke="#A7417A"/><path d="M6.97 6.32c.01.98.03 1.97.08 2.95l.12 1.35C5.32 8.87 3.36 7.26 1.34 5.71c2.09-.34 3.71-.44 5.63.61z" stroke="#EA9D98"/><path d="M71.78 4.25c.59 1.67 1.25 3.32 1.84 4.99 2.18 5.88 1.68 12.19 3.26 18.35-3.18 2.31-6.13 4.95-8.9 7.73-.62-6.52.49-12.63 1.13-19.07.32-2.98.54-6.08 1.15-9.01.5-1 1-2 1.52-2.99z" stroke="#D353A1"/><path d="M7.17 10.62c1.95 1.92 3.96 3.79 5.95 5.66a27.35 27.35 0 0 1-1.95 2.95c-3.82-4.26-7.69-8.06-9.83-13.52 2.02 1.55 3.98 3.16 5.83 4.91z" stroke="#DB4E3D"/><path d="M106 5.98c4.32 4.96 7.62 10.55 11.2 16.04 2.67.22 5.34.51 8.02.69-2.49-.01-4.93.12-7.41.25.57 1.61 1.11 3.23 1.7 4.83.75 2.07 1.48 4.15 2.18 6.24.73 2.65 1.44 5.32 1.92 8.03.05 1.55.07 3.11.07 4.66-.08 6.69.53 13.31 1.38 19.94-.21.93-.42 1.86-.62 2.8l-.18.96c-.72-3.2-1.11-6.87-2.68-9.78-1.16-1.03-3.27-1.2-4.73-1.69-.41-1.02-.76-2.04-1.05-3.1-2.97 1.12-4.84 2.59-7.81.39l.9.09c1.52-.02 3.03-.09 4.54-.23l.29-.85c3.72-8.32 2.76-16.77.63-25.34-1.2-5.52-3.05-10.76-5.33-15.93-1.05-2.65-1.96-5.35-3.02-8z" stroke="#CFD2D7"/><path d="M6.97 6.32c2.55 1.34 4.92 2.94 7.31 4.54l-1.93 1.39c-1.78-.97-3.52-2.01-5.3-2.98-.05-.98-.07-1.97-.08-2.95z" stroke="#DB6D69"/><path d="M7.05 9.27c1.78.97 3.52 2.01 5.3 2.98 3.16 2.22 6.26 4.53 9.22 7.02-.79.94-1.57 1.89-2.36 2.83-2.06-1.9-4.04-3.9-6.09-5.82-1.99-1.87-4-3.74-5.95-5.66l-.12-1.35z" stroke="#FFFDEC"/><path d="M14.28 10.86c3.52 1.99 6.97 4.09 10.47 6.13-.89.64-1.78 1.27-2.67 1.91l-.51.37c-2.96-2.49-6.06-4.8-9.22-7.02l1.93-1.39z" stroke="#D37C18"/><path d="M106.15 11.14c.98.92 1.95 1.86 2.87 2.84 2.28 5.17 4.13 10.41 5.33 15.93 2.13 8.57 3.09 17.02-.63 25.34-1.33-7.72-2.08-15.38-4.02-22.98-1.06-4.56-2.7-8.94-3.84-13.46-.12-2.57.05-5.11.29-7.67z" stroke="#973766"/><path d="M13.12 16.28c2.05 1.92 4.03 3.92 6.09 5.82.59.53 1.19 1.04 1.8 1.55-.86 1.23-1.66 2.49-2.47 3.75l-.59-.47c-2.35-2.49-4.46-5.19-6.78-7.7.72-.94 1.36-1.93 1.95-2.95z" stroke="#D39C02"/><path d="M97.56 15.67c1.94 1.97 3.72 4.04 5.16 6.4 1.29 4.14 1.97 8.37 2.6 12.65.93 7.43 3.98 13.97 3.57 21.61l-.9-.09c-1.85-1.23-3.47-2.82-5.2-4.22 1.11-.32 2.22-.61 3.35-.88-3.07-8.81-5.17-18.17-9.54-26.3.04-3.12.56-6.09.96-9.17z" stroke="#CC4381"/><path d="M24.75 16.99c1.7.99 3.43 1.94 5.16 2.89.61 1.31 1.46 2.15 2.55 2.53-.18 1.02-.35 2.05-.52 3.07l-1.2.29c-1.96-1.65-3.86-3.37-5.91-4.91-.9-.68-1.81-1.34-2.75-1.96.89-.64 1.78-1.27 2.67-1.91z" stroke="#AAD506"/><path d="M21.57 19.27l.51-.37c.94.62 1.85 1.28 2.75 1.96-.64.35-1.28.71-1.9 1.09-.49.69-.97 1.39-1.44 2.09l-.48-.39c-.61-.51-1.21-1.02-1.8-1.55.79-.94 1.57-1.89 2.36-2.83z" stroke="#E6EC80"/><path d="M105.86 18.81c1.14 4.52 2.78 8.9 3.84 13.46 1.94 7.6 2.69 15.26 4.02 22.98l-.29.85c-1.51.14-3.02.21-4.54.23.41-7.64-2.64-14.18-3.57-21.61-.63-4.28-1.31-8.51-2.6-12.65 1.04-1.1 2.09-2.18 3.14-3.26z" stroke="#B5336E"/><path d="M29.91 19.88c1.46.18 2.85.39 3.1 2.12l-.55.41c-1.09-.38-1.94-1.22-2.55-2.53z" stroke="#A8C089"/><path d="M22.93 21.95c.62-.38 1.26-.74 1.9-1.09 2.05 1.54 3.95 3.26 5.91 4.91-.84 1.47-1.64 2.97-2.45 4.46-2.25-2.09-4.44-4.23-6.8-6.19.47-.7.95-1.4 1.44-2.09z" stroke="#FFFFFA"/><path d="M32.46 22.41l.55-.41c3.14 1.41 6.01 3.33 9.1 5.02.43 1.19.9 2.38 1.36 3.56-.42.74-.84 1.49-1.26 2.24-1.01-.66-2.02-1.34-3.02-2.01-.97-.72-1.94-1.43-2.92-2.13-1.43-1.09-2.85-2.19-4.33-3.2.17-1.02.34-2.05.52-3.07z" stroke="#03CA3F"/><path d="M117.81 22.96c2.48-.13 4.92-.26 7.41-.25 8.45.74 17.96 2.13 25.26 6.69-2.16-.3-4.35-.5-6.53-.7 2.83 1.72 6.14 3.49 8.33 6.02 2.41 2.72 3.65 6.23 5.02 9.53-2.33.95-4.69 1.76-7.21 2.08-6.01-3.09-11.78-6.6-17.81-9.67-4.05-2.09-5.8-5.88-9.11-8.63-1.2-.21-2.45-.2-3.66-.24-.59-1.6-1.13-3.22-1.7-4.83zm14.44 9.62c2.62 2.39 5.37 4.89 8.49 6.63 3.6 1.85 8.53 1.58 12.49 1.66-1.22-2.8-2.23-5.42-4.71-7.38-4.29-3.58-10.88-4.49-16.28-4.15-.04 1.07-.04 2.15.01 3.24z" stroke="#C94BE4"/><path d="M21.01 23.65l.48.39c2.36 1.96 4.55 4.1 6.8 6.19.17 1.03.35 2.07.52 3.11l-.78-.02c-3.58.33-6.54-4.22-9.49-5.92.81-1.26 1.61-2.52 2.47-3.75z" stroke="#9DEB05"/><path d="M95.73 24.69l-.16.79c-2.61 1.25-4.58 2.5-6.27 4.91-3.22 4.42-7.61 7.7-10.9 12.02-3.69 4.8-3.24 11.37-1.76 16.92.39 1.25.83 2.49 1.29 3.73.57 1.42 1.17 2.83 1.71 4.27-.05.9-.11 1.8-.17 2.7-1.13-.64-2.25-1.29-3.37-1.94l1.9-.05c-2.27-3.85-5.6-7.53-5.98-12.04-.58-6.52-.96-13.14-.55-19.68-2.1 1.16-4.21 2.18-6.59 2.59 1.02-1.21 2.03-2.42 3.1-3.59 2.77-2.78 5.72-5.42 8.9-7.73 1.77-.78 3.58-1.44 5.43-2.02 4.46-.95 8.87-1.02 13.42-.88z" stroke="#DB55EF"/><path d="M95.73 24.69l.87.15c4.37 8.13 6.47 17.49 9.54 26.3-1.13.27-2.24.56-3.35.88-1.25-1.07-2.53-2.09-3.81-3.12-.46-1.13-.91-2.26-1.41-3.38-1.15-6.61-1.89-13.32-2-20.04l.16-.79z" stroke="#E64691"/><path d="M30.74 25.77l1.2-.29c1.48 1.01 2.9 2.11 4.33 3.2-1.36-.48-2.74-.91-4.14-1.28-.47 1.2-.93 2.4-1.43 3.58 1.69 2.07 3.36 4.15 5.19 6.11.93 1.11 1.84 2.25 2.76 3.38l.04.94c-4.45-1.68-6.02-5.43-9.88-8.07-.17-1.04-.35-2.08-.52-3.11.81-1.49 1.61-2.99 2.45-4.46z" stroke="#62F5B7"/><path d="M95.57 25.48c.11 6.72.85 13.43 2 20.04-1.23-1.98-2.66-3.82-4.1-5.65-1.67 1.21-2.48 1.91-2.48 4.14-.75 6.9 4.68 13.9 11.92 13.41.38.92.78 1.83 1.2 2.73-6.33.41-12.13-1.05-15-7.25-.2-4.06-.31-8.16-.11-12.23 1.99-2.72 4.39-5.09 6.36-7.82-8.09.2-14.15 6.66-17 13.71-.94 2-.48 3.81-.16 5.87-.46 2.31-.97 4.61-1.56 6.9-1.48-5.55-1.93-12.12 1.76-16.92 3.29-4.32 7.68-7.6 10.9-12.02 1.69-2.41 3.66-3.66 6.27-4.91z" stroke="#B931D2"/><path d="M17.95 26.93l.59.47c2.95 1.7 5.91 6.25 9.49 5.92-.22 1.86-.22 3.72-.27 5.59-3.43-3.87-6.75-7.81-9.81-11.98z" stroke="#73B355"/><path d="M32.13 27.4c1.4.37 2.78.8 4.14 1.28.98.7 1.95 1.41 2.92 2.13.74 1.1 1.46 2.21 2.2 3.31-1 1.69-1.94 3.4-2.96 5.07-.87-.67-1.72-1.37-2.54-2.1-1.83-1.96-3.5-4.04-5.19-6.11.5-1.18.96-2.38 1.43-3.58z" stroke="#FEFFFF"/><path d="M42.11 27.02c4.12 2.24 8.24 4.45 12.24 6.92.18 1.08.36 2.17.54 3.26-3.64-2.54-7.3-4.93-11.42-6.62-.46-1.18-.93-2.37-1.36-3.56z" stroke="#3392A8"/><path d="M123.17 28.03c3.31 2.75 5.06 6.54 9.11 8.63 6.03 3.07 11.8 6.58 17.81 9.67 2.91 1.71 4.64 4.31 6.23 7.21-1.74.67-3.49 1.33-5.28 1.88.56-.84 1.12-1.68 1.69-2.53-2.29-2.09-4.38-4.13-7.43-5.06-3.8-1.21-7.09-3.2-10.44-5.31l-.18 1.58c-3.35-4.68-7.19-8.66-12.99-10.07-.7-2.09-1.43-4.17-2.18-6.24 1.21.04 2.46.03 3.66.24z" stroke="#A641B7"/><path d="M150.48 29.4c7.07 4.43 11.76 11.16 16.04 18.13 5.45 8.9 12.46 15.95 19.24 23.72 7.16 8.25 10.69 18.87 10.93 29.71.03 6.76 1.83 13.29 1.83 20.04.03 5.5.08 11.31-.93 16.72-.53 3.05-1.46 6.02-1.99 9.08-.95 5.49-.6 11.03-1.3 16.56-.93-5.3-2.96-9.83-1.96-15.32-2.58 1.41-5.2 2.77-7.85 4.08.46-2.27.73-4.58 1.2-6.85-1.15-.83-2.3-1.67-3.47-2.48 2.73.07 5.43-.2 8.13-.54-3.62-3.58-7.95-4.27-12.49-6.07-9.72-7.85-14.85-19.96-14.13-32.4l.04-.87 2.92-2.08.65 1 .31.6c-2.32 5.06-.72 9.62.32 14.78 1.78 7.23 6.51 13.05 12.65 17.11-2.09-4.43-4.36-8.39-5.9-13.03-1.17-3.42-1.78-6.93-2.65-10.42 2.48 4.63 4.24 9.58 6.78 14.17 2.41 4.41 5.76 7.91 9.41 11.31 1.29 1.22 2.58 2.44 3.86 3.67 1.67-6.32 3.3-13.07 3.18-19.64-.16-1.64-.28-4.21-1.82-5.2-4.19-3.08-10.21-3.92-12.87-8.83-2.32-4.51-3.69-9.49-5.83-14.1-2.27-4.97-.17-9.98-3.24-14.78.46-1.12.92-2.24 1.39-3.36-3.57 1.73-6.91 3.56-10.92 4.01-8.46.72-16.61.49-24.11-3.93-4.69-2.43-6.4-6.67-9.14-10.87-.39.61-.78 1.22-1.16 1.83-.33-2.32-.5-4.68-.7-7.02 1.46 1.19 2.96 2.38 4.35 3.64 3.62 3.77 7.03 8.05 11.91 10.25 6.15 2.83 13.23 3.42 19.92 3.25 2.97-.52 5.58-1.79 8.16-3.27-2.79-2.63-5.94-4.9-8.58-7.67-1.49-1.54-1.74-3.41-1.97-5.43.04-2.27-.11-4.68-.47-6.91-1.3.52-2.6 1.04-3.9 1.55-1.59-2.9-3.32-5.5-6.23-7.21 2.52-.32 4.88-1.13 7.21-2.08-1.37-3.3-2.61-6.81-5.02-9.53-2.19-2.53-5.5-4.3-8.33-6.02 2.18.2 4.37.4 6.53.7zm44.56 76.53c-.06-3.14.36-7.16-1.18-9.98-1.86-3.17-4.82-5.82-7.22-8.61-4.23-4.63-6.93-9.96-11.58-14.24 1.95 8.18 6.76 13.82 11.02 20.86 2.61 4.29 5.48 8.33 8.96 11.97z" stroke="#C339DE"/><path d="M132.24 29.34c5.4-.34 11.99.57 16.28 4.15 2.48 1.96 3.49 4.58 4.71 7.38-3.96-.08-8.89.19-12.49-1.66-3.12-1.74-5.87-4.24-8.49-6.63-.05-1.09-.05-2.17-.01-3.24z" stroke="#E073F4"/><path d="M39.19 30.81c1 .67 2.01 1.35 3.02 2.01 4.45 2.69 8.81 5.23 12.25 9.23-3.72-2.17-7.23-4.65-10.89-6.91-.76 1.56-1.69 3.26-1.93 4.99.25 1.26.84 2.5 1.4 3.65-1.42-1.18-2.92-2.22-4.39-3.31-.92-1.13-1.83-2.27-2.76-3.38.82.73 1.67 1.43 2.54 2.1 1.02-1.67 1.96-3.38 2.96-5.07-.74-1.1-1.46-2.21-2.2-3.31z" stroke="#8AE3EB"/><path d="M43.47 30.58c4.12 1.69 7.78 4.08 11.42 6.62.17 1.19.32 2.39.45 3.59l-.43.62-.45.64c-3.44-4-7.8-6.54-12.25-9.23.42-.75.84-1.5 1.26-2.24z" stroke="#18AFDE"/><path d="M28.03 33.32l.78.02c3.86 2.64 5.43 6.39 9.88 8.07l.03.72c-.81 1.22-1.64 2.43-2.47 3.64-2.12-1.55-4.33-2.96-6.41-4.58-.7-.75-1.4-1.51-2.08-2.28.05-1.87.05-3.73.27-5.59z" stroke="#00D58B"/><path d="M95.36 32.85c-1.97 2.73-4.37 5.1-6.36 7.82-1.32 3.7-1.13 7.27-1.07 11.12-1.29-.44-2.57-.89-3.85-1.34-.39.88-.78 1.75-1.18 2.62-.88-1.24-1.74-2.49-2.64-3.72-.7 1.01-1.39 2.04-2.06 3.08-.32-2.06-.78-3.87.16-5.87 2.85-7.05 8.91-13.51 17-13.71z" stroke="#6B1D7C"/><path d="M54.35 33.94c2.68 1.58 5.32 3.22 8.08 4.66 1.11.59 2.21 1.19 3.31 1.79-.22.95-.46 1.89-.72 2.83-2.56-1.61-5.15-3.24-7.87-4.59-.63.7-1.23 1.42-1.81 2.16-.13-1.2-.28-2.4-.45-3.59-.18-1.09-.36-2.18-.54-3.26z" stroke="#6233A9"/><path d="M121.69 34.03c5.8 1.41 9.64 5.39 12.99 10.07 3.62 6.29 8.84 10.83 16.36 11.32 1.79-.55 3.54-1.21 5.28-1.88 1.3-.51 2.6-1.03 3.9-1.55.36 2.23.51 4.64.47 6.91-7.31-.46-13.96 2.81-21.42 1.85.37-1.48 1.28-3.06.47-4.55-1.69-3.31-4.76-6.01-7.29-8.7-2.5-2.65-5.4-4.29-8.84-5.44-.48-2.71-1.19-5.38-1.92-8.03z" stroke="#DB4BEC"/><path d="M43.57 35.14c3.66 2.26 7.17 4.74 10.89 6.91-1.47 2.34-2.71 4.8-3.71 7.38-2.76-1.62-5.29-3.56-7.71-5.65-.56-1.15-1.15-2.39-1.4-3.65.24-1.73 1.17-3.43 1.93-4.99z" stroke="#FFF"/><path d="M71.47 36.32c-.41 6.54-.03 13.16.55 19.68.38 4.51 3.71 8.19 5.98 12.04l-1.9.05c-1.36-.77-2.67-1.62-3.92-2.56-1.1-1.25-2.1-2.57-3.03-3.94-1.15-1.85-2.17-3.81-3.19-5.74l-.38-1.6c-.37-1.65-.72-3.3-1.12-4.95-.24-.95-.5-1.9-.76-2.85.45-1.07.9-2.14 1.32-3.23.26-.94.5-1.88.72-2.83-1.1-.6-2.2-1.2-3.31-1.79.81.12 1.63.23 2.45.31 2.38-.41 4.49-1.43 6.59-2.59z" stroke="#CB30E8"/><path d="M57.15 38.63c2.72 1.35 5.31 2.98 7.87 4.59-.42 1.09-.87 2.16-1.32 3.23-2.91-1.72-5.79-3.49-8.79-5.04l.43-.62c.58-.74 1.18-1.46 1.81-2.16z" stroke="#8711DD"/><path d="M38.65 40.47c1.47 1.09 2.97 2.13 4.39 3.31 2.42 2.09 4.95 4.03 7.71 5.65L50 51.56c-5.5-1.09-8.09-5.29-11.28-9.43l-.03-.72-.04-.94z" stroke="#57B5F9"/><path d="M93.47 39.87c1.44 1.83 2.87 3.67 4.1 5.65.5 1.12.95 2.25 1.41 3.38 1.2 2.89 2.59 5.69 3.93 8.52-7.24.49-12.67-6.51-11.92-13.41 0-2.23.81-2.93 2.48-4.14z" stroke="#DA52E9"/><path d="M29.84 41.19c2.08 1.62 4.29 3.03 6.41 4.58 3.51 3.75 5.95 7.81 10.85 10.01 2.23 3.51 4.49 6.19 7.8 8.73 2.25-.58 4.51-1.08 6.75-1.69-2.38 1.54-5.03 3.38-7.79 4.15-1.63.62-2.47-.52-3.7-1.35-2.31-2.96-4.38-6.07-6.97-8.82-4.67-5.02-8.71-10.55-13.35-15.61z" stroke="#690B97"/><path d="M89 40.67c-.2 4.07-.09 8.17.11 12.23.15 2.11.29 4.21.42 6.32l-1.41-.58c-2.02-1.57-3.73-3.48-5.22-5.57.4-.87.79-1.74 1.18-2.62 1.28.45 2.56.9 3.85 1.34-.06-3.85-.25-7.42 1.07-11.12z" stroke="#9B25A8"/><path d="M38.72 42.13c3.19 4.14 5.78 8.34 11.28 9.43-1 1.38-1.94 2.81-2.9 4.22-4.9-2.2-7.34-6.26-10.85-10.01.83-1.21 1.66-2.42 2.47-3.64z" stroke="#2671DF"/><path d="M54.46 42.05l.45-.64c3 1.55 5.88 3.32 8.79 5.04.26.95.52 1.9.76 2.85-2.76-2.19-5.65-4.1-9.02-5.24-.97 2.12-2.17 4.53-2.38 6.87 1.15 3.41 4.93 6.1 7.52 8.46 1.62-1.76 3.31-3.45 5-5.14l.38 1.6c-1.02 2.31-2.17 4.55-3.69 6.58-.24-.4-.49-.8-.74-1.2-5.4-1.75-7.72-5.92-11.53-9.67l.75-2.13c1-2.58 2.24-5.04 3.71-7.38z" stroke="#D076EF"/><path d="M123.61 42.06c3.44 1.15 6.34 2.79 8.84 5.44 2.53 2.69 5.6 5.39 7.29 8.7.81 1.49-.1 3.07-.47 4.55-3.19-1-6.17-1.95-8.51-4.48-2.65-2.92-4.65-6.43-7.08-9.55 0-1.55-.02-3.11-.07-4.66z" stroke="#EE74F7"/><path d="M134.86 42.52c3.35 2.11 6.64 4.1 10.44 5.31 3.05.93 5.14 2.97 7.43 5.06-.57.85-1.13 1.69-1.69 2.53-7.52-.49-12.74-5.03-16.36-11.32l.18-1.58z" stroke="#8B289C"/><path d="M55.44 44.06c3.37 1.14 6.26 3.05 9.02 5.24.4 1.65.75 3.3 1.12 4.95-1.69 1.69-3.38 3.38-5 5.14-2.59-2.36-6.37-5.05-7.52-8.46.21-2.34 1.41-4.75 2.38-6.87z" stroke="#FFFEFF"/><path d="M123.68 46.72c2.43 3.12 4.43 6.63 7.08 9.55 2.34 2.53 5.32 3.48 8.51 4.48 7.46.96 14.11-2.31 21.42-1.85.23 2.02.48 3.89 1.97 5.43 2.64 2.77 5.79 5.04 8.58 7.67-2.58 1.48-5.19 2.75-8.16 3.27.69-.81 1.38-1.62 2.08-2.43-2.81-2.06-6.12-3.96-8.36-6.64-.85-1.68-.4-4.15-.49-6.01-4.63.96-9.62 2.09-14.35 1.93-4.12-.15-8.03-1.89-11.94-3.1.39.93.8 1.84 1.23 2.75-1.39-1.26-2.89-2.45-4.35-3.64.2 2.34.37 4.7.7 7.02 2.87 8.82 10.37 16.02 19.06 19.05 8.97 2.28 17.57-1.87 24.88-6.73 3.07 4.8.97 9.81 3.24 14.78 2.14 4.61 3.51 9.59 5.83 14.1 2.66 4.91 8.68 5.75 12.87 8.83 1.54.99 1.66 3.56 1.82 5.2.12 6.57-1.51 13.32-3.18 19.64-1.28-1.23-2.57-2.45-3.86-3.67-.14-4.96-.8-10.13-3.12-14.58-1.65-3.12-4.33-4.87-7.22-6.71.07 3.35.31 6.68.93 9.98-2.54-4.59-4.3-9.54-6.78-14.17-1.38-2.86-2.96-5.61-4.42-8.44l-.31-.6c2.16.8 4.36 1.36 6.55 2.04-.74-5.69-1.31-11.08-4.35-16.1-1.62 3.6-2.91 7.29-4.2 11.01.45.68.9 1.37 1.35 2.05l-2.92 2.08.06-1.59c-2.78 1.9-5.37 4.05-8.11 6l-1.26.84-2.05.25c2.29-2.04 4.89-4 6.53-6.6 2.32-3.75 3.58-8.23 4.03-12.6-.69-.67-1.38-1.32-2.09-1.97-1.32 3.79-2.03 8.15-4.03 11.63-2.89 4.71-8.3 7.61-13.12 9.97l.22-1.58c1.13-1.64 2.26-3.28 3.4-4.91.57-.83 1.12-1.68 1.66-2.53l.18 2.3c3.78-4.92 3.56-10.51 6.29-16.05-3.12.01-6.27.03-9.39-.18-9.66-1.3-16.71-11.3-21.03-19.23-.85-6.63-1.46-13.25-1.38-19.94z" stroke="#B430CA"/><path d="M80.26 49.35c.9 1.23 1.76 2.48 2.64 3.72 1.49 2.09 3.2 4 5.22 5.57-2.82-1.03-5.68-1.81-8.57-2.58-.53 2.34-1.11 4.66-1.62 7-.46-1.24-.9-2.48-1.29-3.73.59-2.29 1.1-4.59 1.56-6.9.67-1.04 1.36-2.07 2.06-3.08z" stroke="#A3C7E4"/><path d="M98.98 48.9c1.28 1.03 2.56 2.05 3.81 3.12 1.73 1.4 3.35 2.99 5.2 4.22 2.97 2.2 4.84.73 7.81-.39.29 1.06.64 2.08 1.05 3.1 1.46.49 3.57.66 4.73 1.69 1.57 2.91 1.96 6.58 2.68 9.78.19 3.14.9 5.98 2.77 8.56 1.63 2.72 4.89 5.82 4.37 9.22-.07 1.74-1.63 2.79-2.68 4-1.83 1.77-3.26 3.84-4.63 5.98-2.42 3.86-5.53 7.03-8.18 10.72-3.15 4.3-5.93 8.47-9.98 12.03-4.16 3.67-9.54 5.89-14.91 7.09-5.33 1.19-10.61 1.24-15.95 2.22-4.71.84-9.12 2.42-13.87 3.11-6.3.94-12.22.12-18.76.2-6.52-7.6-11.81-16.83-14-26.65 4.28-8.07 9.25-15.63 14.17-23.3 3.31-5.09 6.25-11 11.57-14.26 4.81-2.89 9.99-5.17 14.97-7.75.93 1.37 1.93 2.69 3.03 3.94-3.67 4.41-7.95 7.82-12.74 10.93-11.42 7.78-20.12 19.72-23.87 33.04-.66 3.05-1.13 7.46.74 10.19 4.55 5.09 11.51 6.57 18.06 6.82 4.55.16 8.21-1.46 12.51-2.53 4.99-1.27 10.03-.87 15.22-1.88 4.41-.84 8.74-2.13 13.09-3.21-.1-.51-.19-1.02-.29-1.53 3.31-1.63 6.38-2.87 8.13-6.36 1.52-3.28 2.78-7.65 1.17-11.11-.57-1.93-1.68-3.7-1.07-5.71 1.04-4.23 3.29-7.73 3.86-12.19.36-3.07.33-6.41-.67-9.36-.93-2.69-3.48-3.88-5.85-5.08-3.72-1.69-7.52-3.44-11.47-4.52-3.12-.9-5.85.43-8.84 1.22-.19 1.03-.36 2.05-.52 3.08-.54-1.44-1.14-2.85-1.71-4.27.51-2.34 1.09-4.66 1.62-7 2.89.77 5.75 1.55 8.57 2.58l1.41.58c-.13-2.11-.27-4.21-.42-6.32 2.87 6.2 8.67 7.66 15 7.25-.42-.9-.82-1.81-1.2-2.73-1.34-2.83-2.73-5.63-3.93-8.52z" stroke="#E9EAF0"/><path d="M50 51.56c3.81 3.75 6.13 7.92 11.53 9.67.25.4.5.8.74 1.2l-.62.39c-2.24.61-4.5 1.11-6.75 1.69-3.31-2.54-5.57-5.22-7.8-8.73.96-1.41 1.9-2.84 2.9-4.22z" stroke="#B105E8"/><path d="M65.96 55.85c1.02 1.93 2.04 3.89 3.19 5.74-4.98 2.58-10.16 4.86-14.97 7.75-5.32 3.26-8.26 9.17-11.57 14.26-4.92 7.67-9.89 15.23-14.17 23.3-1.17 1.55-2.5 2.93-4.02 4.13l-2.12.46c3.38-6.61 7.42-12.83 10.79-19.44 4.72-9.06 9.87-19.1 17.07-26.43 1.23.83 2.07 1.97 3.7 1.35 2.76-.77 5.41-2.61 7.79-4.15l.62-.39c1.52-2.03 2.67-4.27 3.69-6.58z" stroke="#A6CFE6"/><path d="M130.02 59.02c3.91 1.21 7.82 2.95 11.94 3.1 4.73.16 9.72-.97 14.35-1.93.09 1.86-.36 4.33.49 6.01 2.24 2.68 5.55 4.58 8.36 6.64-.7.81-1.39 1.62-2.08 2.43-6.69.17-13.77-.42-19.92-3.25-4.88-2.2-8.29-6.48-11.91-10.25-.43-.91-.84-1.82-1.23-2.75zm5.66 3.86c1.52 1.62 3.15 3.97 5.27 4.81 2.08.51 4.48.11 6.6.04-.32-1.55-.63-3.1-.95-4.65-3.66-.33-7.25-.41-10.92-.2z" stroke="#8B1E9E"/><path d="M89 63.03c3.95 1.08 7.75 2.83 11.47 4.52 2.37 1.2 4.92 2.39 5.85 5.08 1 2.95 1.03 6.29.67 9.36-.57 4.46-2.82 7.96-3.86 12.19-.61 2.01.5 3.78 1.07 5.71 1.61 3.46.35 7.83-1.17 11.11-1.75 3.49-4.82 4.73-8.13 6.36.1.51.19 1.02.29 1.53-4.35 1.08-8.68 2.37-13.09 3.21-5.19 1.01-10.23.61-15.22 1.88-4.3 1.07-7.96 2.69-12.51 2.53-6.55-.25-13.51-1.73-18.06-6.82-1.87-2.73-1.4-7.14-.74-10.19 3.75-13.32 12.45-25.26 23.87-33.04 4.79-3.11 9.07-6.52 12.74-10.93 1.25.94 2.56 1.79 3.92 2.56 1.12.65 2.24 1.3 3.37 1.94.06-.9.12-1.8.17-2.7.16-1.03.33-2.05.52-3.08 2.99-.79 5.72-2.12 8.84-1.22zm-4.36 10.75c-6.85 3.43-6.96 14.21-.45 18 4.97 3.22 12.04 1.59 14.86-3.65 3.81-4.9.3-13.22-5.35-14.92-2.92-1.16-6.3-.93-9.06.57z" stroke="#F6F7FB"/><path d="M128.76 63.32c2.74 4.2 4.45 8.44 9.14 10.87 7.5 4.42 15.65 4.65 24.11 3.93 4.01-.45 7.35-2.28 10.92-4.01-.47 1.12-.93 2.24-1.39 3.36-7.31 4.86-15.91 9.01-24.88 6.73-8.69-3.03-16.19-10.23-19.06-19.05.38-.61.77-1.22 1.16-1.83z" stroke="#E360F0"/><path d="M135.68 62.88c3.67-.21 7.26-.13 10.92.2.32 1.55.63 3.1.95 4.65-2.12.07-4.52.47-6.6-.04-2.12-.84-3.75-3.19-5.27-4.81z" stroke="#5F126F"/><path d="M125.06 66.66c4.32 7.93 11.37 17.93 21.03 19.23 2.3 4.64 2.97 8.77 2.92 13.93-.54.85-1.09 1.7-1.66 2.53-.2-3.85.15-8.64-1.63-12.14-1.89-3.12-6.66-4.45-9.67-6.31-5.68-3.13-8.46-9.09-11.61-14.44.2-.94.41-1.87.62-2.8z" stroke="#9CA5C7"/><path d="M124.26 70.42l.18-.96c3.15 5.35 5.93 11.31 11.61 14.44 3.01 1.86 7.78 3.19 9.67 6.31 1.78 3.5 1.43 8.29 1.63 12.14-1.14 1.63-2.27 3.27-3.4 4.91l-1.07 1.35c-8.54 4.62-16.2 10.22-22.56 17.6-9.48 4.9-19.66 8.28-30.23 9.78-12.29 1.47-24.45 4.26-36.37 7.54-4.52-2.63-8.04-5.91-11.28-9.98 6.54-.08 12.46.74 18.76-.2 4.75-.69 9.16-2.27 13.87-3.11 5.34-.98 10.62-1.03 15.95-2.22 5.37-1.2 10.75-3.42 14.91-7.09 4.05-3.56 6.83-7.73 9.98-12.03 2.65-3.69 5.76-6.86 8.18-10.72 1.37-2.14 2.8-4.21 4.63-5.98 1.05-1.21 2.61-2.26 2.68-4 .52-3.4-2.74-6.5-4.37-9.22-1.87-2.58-2.58-5.42-2.77-8.56z" stroke="#DDDBE6"/><path d="M84.64 73.78c2.76-1.5 6.14-1.73 9.06-.57 5.65 1.7 9.16 10.02 5.35 14.92-2.82 5.24-9.89 6.87-14.86 3.65-6.51-3.79-6.4-14.57.45-18zm1.96.77c-1.04 1.43-2.78 2.65-1.78 4.59.95 2.32 5.04 2.3 7.1 1.95 2.48-.28 2.53-2.05 3.39-3.92-1.64-1.08-3.27-3.06-5.36-2.84-1.12.03-2.23.1-3.35.22zm-.27 9.62c-.88.47-1.62 1.17-2.23 2.1.24 4.42 6.52 6.13 9.68 3.5 1.87-1.01 1.58-2.72 1.39-4.53-2.2-2.09-6.15-2.08-8.84-1.07z" stroke="#111212"/><path d="M175.06 73.1c4.65 4.28 7.35 9.61 11.58 14.24 2.4 2.79 5.36 5.44 7.22 8.61 1.54 2.82 1.12 6.84 1.18 9.98-3.48-3.64-6.35-7.68-8.96-11.97-4.26-7.04-9.07-12.68-11.02-20.86z" stroke="#A026BC"/><path d="M89.95 74.33c2.09-.22 3.72 1.76 5.36 2.84-3.07.3-6.15.49-9.22.71l.51-3.33c1.12-.12 2.23-.19 3.35-.22z" stroke="#D2D2D2"/><path d="M86.6 74.55l-.51 3.33c3.07-.22 6.15-.41 9.22-.71-.86 1.87-.91 3.64-3.39 3.92-2.06.35-6.15.37-7.1-1.95-1-1.94.74-3.16 1.78-4.59z" stroke="#5D5D5D"/><path d="M86.33 84.17c2.69-1.01 6.64-1.02 8.84 1.07.19 1.81.48 3.52-1.39 4.53-3.16 2.63-9.44.92-9.68-3.5.61-.93 1.35-1.63 2.23-2.1z" stroke="#404040"/><path d="M146.09 85.89c3.12.21 6.27.19 9.39.18-2.73 5.54-2.51 11.13-6.29 16.05l-.18-2.3c.05-5.16-.62-9.29-2.92-13.93z" stroke="#971BAA"/><path d="M160.88 87.24c.71.65 1.4 1.3 2.09 1.97-.45 4.37-1.71 8.85-4.03 12.6-1.64 2.6-4.24 4.56-6.53 6.6l2.05-.25c-.56.36-1.12.72-1.68 1.07-.87.52-1.76.99-2.66 1.4-1.48.2-2.96.41-4.44.64-.92-.91-1.85-1.8-2.8-2.66l1.07-1.35-.22 1.58c4.82-2.36 10.23-5.26 13.12-9.97 2-3.48 2.71-7.84 4.03-11.63z" stroke="#E57CEF"/><path d="M169.54 87.77c3.04 5.02 3.61 10.41 4.35 16.1-2.19-.68-4.39-1.24-6.55-2.04l-.65-1c-.45-.68-.9-1.37-1.35-2.05 1.29-3.72 2.58-7.41 4.2-11.01z" stroke="#9627AA"/><path d="M163.83 101.32l-.06 1.59-.04.87c-1.03 3.25-2.81 6.82-2.92 10.23.03 3.13.89 6.33 1.81 9.31-3.21-5.06-5.29-10.24-6.9-16 2.74-1.95 5.33-4.1 8.11-6z" stroke="#9716AB"/><path d="M167.65 102.43c1.46 2.83 3.04 5.58 4.42 8.44.87 3.49 1.48 7 2.65 10.42 1.54 4.64 3.81 8.6 5.9 13.03-6.14-4.06-10.87-9.88-12.65-17.11-1.04-5.16-2.64-9.72-.32-14.78z" stroke="#EE75F7"/><path d="M163.73 103.78c-.72 12.44 4.41 24.55 14.13 32.4-1.92-.69-3.85-1.33-5.75-2.02-4.33-2.63-7.02-6.54-9.49-10.84-.92-2.98-1.78-6.18-1.81-9.31.11-3.41 1.89-6.98 2.92-10.23z" stroke="#B41BC8"/><path d="M28.44 106.9c2.19 9.82 7.48 19.05 14 26.65 3.24 4.07 6.76 7.35 11.28 9.98 1 .64 2 1.28 3 1.93.41.61.81 1.22 1.2 1.84l-1.79-.56c-2.86-.8-6.06-1.9-9.03-1.8-1.67.03-3.17 1.79-4.41 2.79-3.67 3.54-8.6 5.85-13.32 7.65-4.43 1.38-7.29-2.15-9.87-5.11.72-1.16 1.44-2.31 2.11-3.49.96 1.97 1.55 4.03 3.89 4.69 2.94 1.25 4.95-3.02 5.76-5.18 1.9-4.57-1.97-8.87-5.93-10.51-2.4-.57-5.21.26-7.59.69-1.17.26-2.35.52-3.52.77 2.45-3.78 5.21-7.04 6.37-11.43 1.3-4.94 2.95-9.76 3.83-14.78 1.52-1.2 2.85-2.58 4.02-4.13z" stroke="#B64DDB"/><path d="M142.88 108.61c.95.86 1.88 1.75 2.8 2.66-1.09 3.53-1.44 7.27-2.41 10.88-2.05 7.56-5.79 14.39-10.63 20.52-2.34 3.22-4.91 5.62-4.33 9.96.51 2.48 1.06 4.95 1.41 7.46l.09 2.16c-1.99-2.45-4.1-4.79-5.92-7.39-.42-2.9.56-5.51 1.72-8.11.83-.86 1.7-1.66 2.56-2.48 5.54-4.26 8.96-10.46 10.95-17.05.99-3.3.8-6.27-.22-9.53-4.5 1.72-7.69 4.89-11.01 8.22-4.83 4.74-10.11 9.84-16.37 12.59-4.15 1.79-8.56 3.02-12.95 4.01-8.26 1.88-16.54 1.09-24.76 3.36-5.04 1.38-9.89 2.57-15.16 1.66l-.73-.23c-.39-.62-.79-1.23-1.2-1.84 6.47.45 11.79-2.04 18.23-2.52 13.35-1.25 26.68-2.24 38.39-9.49 3.07-1.74 5.04-4.37 6.98-7.24 6.36-7.38 14.02-12.98 22.56-17.6z" stroke="#C7C0D6"/><path d="M154.46 108.16l1.26-.84c1.61 5.76 3.69 10.94 6.9 16 2.47 4.3 5.16 8.21 9.49 10.84.17 4.9.61 9.42-.84 14.21-1.14 3.79-3.41 6.92-6.19 9.68 2.91-6.89 6.12-12.75 3.88-20.47-.9-4.08-4.35-7.49-6.74-10.8-4.2-5.39-5.63-11.87-9.44-17.55.56-.35 1.12-.71 1.68-1.07z" stroke="#ACB8D7"/><path d="M152.78 109.23c3.81 5.68 5.24 12.16 9.44 17.55 2.39 3.31 5.84 6.72 6.74 10.8-.53 3.05-.95 6.43-2.36 9.22-1.61 2.5-4.13 4.5-6.29 6.52-3.72 3.37-7.61 6.2-12.62 7.28-3.04.66-6.1-.28-8.98-1.19-1.72-3.1-4.17-6.66-3.74-10.36.45-3.1 2.73-6.11 4.33-8.76 4.51-6.93 6.93-14.18 10.15-21.92 1.12-2.54.98-5.05.67-7.74.9-.41 1.79-.88 2.66-1.4z" stroke="#ECE3F1"/><path d="M22.3 111.49l2.12-.46c-.88 5.02-2.53 9.84-3.83 14.78-1.16 4.39-3.92 7.65-6.37 11.43-.7.15-1.4.31-2.09.47.05-2.05.07-4.1.18-6.14 1.84-3.72 3.47-7.44 4.49-11.49 1.61-3.01 3.45-5.85 5.5-8.59z" stroke="#9B5DCD"/><path d="M145.68 111.27c1.48-.23 2.96-.44 4.44-.64.31 2.69.45 5.2-.67 7.74-3.22 7.74-5.64 14.99-10.15 21.92-1.6 2.65-3.88 5.66-4.33 8.76-.43 3.7 2.02 7.26 3.74 10.36-4-1.5-7.32-3.88-10.4-6.78-.58-4.34 1.99-6.74 4.33-9.96 4.84-6.13 8.58-12.96 10.63-20.52.97-3.61 1.32-7.35 2.41-10.88z" stroke="#DCD4E7"/><path d="M177.92 115.06c2.89 1.84 5.57 3.59 7.22 6.71 2.32 4.45 2.98 9.62 3.12 14.58-3.65-3.4-7-6.9-9.41-11.31-.62-3.3-.86-6.63-.93-9.98z" stroke="#9B2AAE"/><path d="M138.9 117.69c1.02 3.26 1.21 6.23.22 9.53-1.99 6.59-5.41 12.79-10.95 17.05 2.62-4.44 7.3-9.12 6.11-14.57-6.12 2.92-10.72 7.71-16.62 10.97-6.3 3.52-12.31 6.69-19.67 7.24-11.27.97-22.25 1.84-33.02 5.6-2.08-2.01-4.15-4.08-6.32-5.98 5.27.91 10.12-.28 15.16-1.66 8.22-2.27 16.5-1.48 24.76-3.36 4.39-.99 8.8-2.22 12.95-4.01 6.26-2.75 11.54-7.85 16.37-12.59 3.32-3.33 6.51-6.5 11.01-8.22z" stroke="#B5A7D2"/><path d="M16.8 120.08c-1.02 4.05-2.65 7.77-4.49 11.49-2.48 4.89-6.15 12.6-2.51 17.71 4.69 6.64 10.15 13.89 17.85 17.16 2.49 1.1 5.08.85 7.57-.1 5.07-1.86 9.59-5.98 14.19-8.85 3.61-2.34 7.5-3.99 11.48-5.59 1.44 1.11 2.91 2.18 4.38 3.24 3.71-1.29 7.45-2.73 11.27-3.62 6.95-1.52 13.53-.75 20.45-1.49 12.05-1.7 21.35-7.2 32.15-11.92-1.33 3.25-2.97 5.99-5.64 8.31.18-.99.35-1.99.49-3-10.23 3.74-20.19 7.41-31.2 8.04 3.23.29 6.46.65 9.69.94-8.31 2.52-15.8.37-24.38 1.7-4.05.55-7.82 1.99-11.48 3.77-1.61-.55-3.41-1.93-5.11-1.21-4.41 1.53-8.19 4.6-12.55 6.36-4.53 1.81-9.14 3.47-13.71 5.18-6.13 2.32-12.01.58-18.93.89-2.53-3.57-5.08-7.14-7.53-10.77-4.06-6.19-5.64-13.52-3.97-20.79 1.83-7.33 7.11-12.05 11.98-17.45z" stroke="#6F55A4"/><path d="M120.32 126.21c-1.94 2.87-3.91 5.5-6.98 7.24-11.71 7.25-25.04 8.24-38.39 9.49-6.44.48-11.76 2.97-18.23 2.52-1-.65-2-1.29-3-1.93 11.92-3.28 24.08-6.07 36.37-7.54 10.57-1.5 20.75-4.88 30.23-9.78z" stroke="#CFC4E8"/><path d="M134.28 129.7c1.19 5.45-3.49 10.13-6.11 14.57-.86.82-1.73 1.62-2.56 2.48-1.95 2.11-5.24 5.07-4.74 8.22.5 4.41 1.93 8.75 3.17 13-2.37-3.31-5.07-6.36-7.4-9.71a172.7 172.7 0 0 0-1.58-3.36c.93-1.34 1.86-2.69 2.85-3.99 1.91-1.42 3.85-2.86 5.59-4.49 2.67-2.32 4.31-5.06 5.64-8.31-10.8 4.72-20.1 10.22-32.15 11.92-6.92.74-13.5-.03-20.45 1.49-3.82.89-7.56 2.33-11.27 3.62-1.47-1.06-2.94-2.13-4.38-3.24-.94-.75-1.84-1.54-2.7-2.37-.74-.9-1.4-1.84-2.06-2.79l1.79.56.73.23c2.17 1.9 4.24 3.97 6.32 5.98 10.77-3.76 21.75-4.63 33.02-5.6 7.36-.55 13.37-3.72 19.67-7.24 5.9-3.26 10.5-8.05 16.62-10.97z" stroke="#9683B2"/><path d="M12.31 131.57c-.11 2.04-.13 4.09-.18 6.14.69-.16 1.39-.32 2.09-.47 1.17-.25 2.35-.51 3.52-.77 1.15 1.12 2.31 2.24 3.42 3.4-2.26-.42-4.49-.89-6.78-1.19-.06 3.63-.13 7.27-.15 10.9 1.54.21 3.07.45 4.61.65-1.25.28-2.48.62-3.72.96 3.14 3.65 6.11 7 10.64 8.96 3.68 1.55 8.32 2.46 12.05.59 4.5-2.16 7.96-6.45 11.86-9.09 2.34-1.66 5.75-1.72 8.52-2.12.86.83 1.76 1.62 2.7 2.37-3.98 1.6-7.87 3.25-11.48 5.59-4.6 2.87-9.12 6.99-14.19 8.85-2.49.95-5.08 1.2-7.57.1-7.7-3.27-13.16-10.52-17.85-17.16-3.64-5.11.03-12.82 2.51-17.71z" stroke="#8947B9"/><path d="M172.11 134.16c1.9.69 3.83 1.33 5.75 2.02 4.54 1.8 8.87 2.49 12.49 6.07-2.7.34-5.4.61-8.13.54-2.03-1.12-4.03-2.26-6.13-3.24-1.34 4.35-2.04 8.43-4.01 12.53-1.53 3.14-3.38 6.13-5.02 9.22-2.03.2-4.06.27-6.08.39 1.44-1.14 2.84-2.31 4.1-3.64 2.78-2.76 5.05-5.89 6.19-9.68 1.45-4.79 1.01-9.31.84-14.21z" stroke="#A239B6"/><path d="M25.33 135.78c3.96 1.64 7.83 5.94 5.93 10.51-.81 2.16-2.82 6.43-5.76 5.18-2.34-.66-2.93-2.72-3.89-4.69.04-2.32-.04-4.62-.45-6.91-1.11-1.16-2.27-2.28-3.42-3.4 2.38-.43 5.19-1.26 7.59-.69z" stroke="#CB57EE"/><path d="M168.96 137.58c2.24 7.72-.97 13.58-3.88 20.47-1.26 1.33-2.66 2.5-4.1 3.64-2.4.45-4.75 1.03-7.01 1.96-2.08 1.48-4.44 4.12-7.06 4.34-6.75.23-12.9-2.73-17.19-7.9-.35-2.51-.9-4.98-1.41-7.46 3.08 2.9 6.4 5.28 10.4 6.78 2.88.91 5.94 1.85 8.98 1.19 5.01-1.08 8.9-3.91 12.62-7.28 2.16-2.02 4.68-4.02 6.29-6.52 1.41-2.79 1.83-6.17 2.36-9.22z" stroke="#E8C4E4"/><path d="M14.38 138.68c2.29.3 4.52.77 6.78 1.19.41 2.29.49 4.59.45 6.91-.67 1.18-1.39 2.33-2.11 3.49l-.66-.04c-1.54-.2-3.07-.44-4.61-.65.02-3.63.09-7.27.15-10.9z" stroke="#220047"/><path d="M176.09 139.55c2.1.98 4.1 2.12 6.13 3.24 1.17.81 2.32 1.65 3.47 2.48-.47 2.27-.74 4.58-1.2 6.85 2.65-1.31 5.27-2.67 7.85-4.08-1 5.49 1.03 10.02 1.96 15.32l-.08 1.1c-2.03-2.88-3.23-5.96-4.18-9.32-1.4 1.19-2.84 2.34-4.24 3.53-2.94 2.43-6.18 4.93-9.72 6.39-3.68 1.52-8.04 1.6-11.98 1.73-2.88-.12-5.67-.69-8.44-1.43 7.05-2.14 13.27-.93 19.82-4.88 3.47-2.24 7.11-6.2 7.63-10.43-.41-2.86-4.44-4.8-6.77-6-1.31 4.26-1.85 8.74-3.3 12.94-.77 2.74-3.66 3.37-5.98 4.31 1.64-3.09 3.49-6.08 5.02-9.22 1.97-4.1 2.67-8.18 4.01-12.53z" stroke="#D048E9"/><path d="M123.99 143.42c-.14 1.01-.31 2.01-.49 3-1.74 1.63-3.68 3.07-5.59 4.49-2.03.57-4.1 1.03-6.15 1.52 1.36 9.47 7.25 17.89 9.62 27.06.67 2.17-.44 3.54-1.33 5.41-4-3.16-6.13-7.59-7.42-12.42-2.13-6.66-3.45-13.48-5.22-20.23-1.65.03-3.29.08-4.93.15-3.23-.29-6.46-.65-9.69-.94 11.01-.63 20.97-4.3 31.2-8.04z" stroke="#533A72"/><path d="M176.34 144.05c2.33 1.2 6.36 3.14 6.77 6-.52 4.23-4.16 8.19-7.63 10.43-6.55 3.95-12.77 2.74-19.82 4.88l-.98-.26c-.24-.48-.48-.96-.71-1.45 2.26-.93 4.61-1.51 7.01-1.96 2.02-.12 4.05-.19 6.08-.39 2.32-.94 5.21-1.57 5.98-4.31 1.45-4.2 1.99-8.68 3.3-12.94z" stroke="#EB85F9"/><path d="M47.1 144.94c2.97-.1 6.17 1 9.03 1.8.66.95 1.32 1.89 2.06 2.79-2.77.4-6.18.46-8.52 2.12-3.9 2.64-7.36 6.93-11.86 9.09-3.73 1.87-8.37.96-12.05-.59-4.53-1.96-7.5-5.31-10.64-8.96 1.24-.34 2.47-.68 3.72-.96l.66.04c2.58 2.96 5.44 6.49 9.87 5.11 4.72-1.8 9.65-4.11 13.32-7.65 1.24-1 2.74-2.76 4.41-2.79z" stroke="#A14ACA"/><path d="M125.61 146.75c-1.16 2.6-2.14 5.21-1.72 8.11 1.05 6.61 3.45 13.12 8.6 17.63 3.38 2.86 6.94 5.48 10.15 8.55-.5 1-.98 2.01-1.42 3.04-2.81 1.33-5.7 2.49-8.66 3.42.85-1.77 2.82-3.56 1.54-5.59-2.83-4.97-7.12-8.99-10.06-13.94-1.24-4.25-2.67-8.59-3.17-13-.5-3.15 2.79-6.11 4.74-8.22z" stroke="#BE90B9"/><path d="M195.6 146.8c-.13 8.47 1.61 16.96 2.19 25.42-2.45-1.53-4.92-2.93-6.81-5.18-2.05-2.52-3.6-5.54-5.18-8.37 1.4-1.19 2.84-2.34 4.24-3.53.95 3.36 2.15 6.44 4.18 9.32l.08-1.1c.7-5.53.35-11.07 1.3-16.56z" stroke="#A93ECC"/><path d="M117.91 150.91c-.99 1.3-1.92 2.65-2.85 3.99a172.7 172.7 0 0 1 1.58 3.36c2.16 5.71 4.47 11.29 7.52 16.6 2.09 3.55 3.31 7.08 4.08 11.12-2.38-.16-4.79-.25-7.14-.54l-1.05-.54c.89-1.87 2-3.24 1.33-5.41-2.37-9.17-8.26-17.59-9.62-27.06 2.05-.49 4.12-.95 6.15-1.52z" stroke="#825C8B"/><path d="M123.89 154.86c1.82 2.6 3.93 4.94 5.92 7.39.95 2.16 1.88 4.66 3.75 6.2 6.2 4.61 13.69 6.1 21.27 4.92-.14.64-.27 1.27-.41 1.91-4.16 3.21-8.49 6.44-13.2 8.8.44-1.03.92-2.04 1.42-3.04-3.21-3.07-6.77-5.69-10.15-8.55-5.15-4.51-7.55-11.02-8.6-17.63z" stroke="#D4A1CB"/><path d="M61.51 156.66c1.7-.72 3.5.66 5.11 1.21-6.84 3.58-12.97 8.16-19.45 12.3-4.41 2.92-9.09 3.16-14.17 4.04-3.87.64-8.22-.95-11.95-1.99-1.96-.52-3.35-1.71-4.73-3.13 6.92-.31 12.8 1.43 18.93-.89 4.57-1.71 9.18-3.37 13.71-5.18 4.36-1.76 8.14-4.83 12.55-6.36z" stroke="#5A3488"/><path d="M116.64 158.26c2.33 3.35 5.03 6.4 7.4 9.71 2.94 4.95 7.23 8.97 10.06 13.94 1.28 2.03-.69 3.82-1.54 5.59-4.23.49-7.76.15-11.46-2.06 2.35.29 4.76.38 7.14.54-.77-4.04-1.99-7.57-4.08-11.12-3.05-5.31-5.36-10.89-7.52-16.6z" stroke="#A276A1"/><path d="M129.72 160.09c4.29 5.17 10.44 8.13 17.19 7.9 2.62-.22 4.98-2.86 7.06-4.34.23.49.47.97.71 1.45l.98.26c2.77.74 5.56 1.31 8.44 1.43-3.08 3-6.27 5.86-9.68 8.49.14-.64.27-1.27.41-1.91-7.58 1.18-15.07-.31-21.27-4.92-1.87-1.54-2.8-4.04-3.75-6.2l-.09-2.16z" stroke="#E2AFD8"/></g><path d="M72.04 1.03c6.51 5.66 11.41 13.89 15.82 21.2 1.45 2.9 5.1 1.72 7.73 1.95.23-4.92.87-9.58 2.14-14.34-.06 1.94-.06 3.89-.17 5.83-.4 3.08-.92 6.05-.96 9.17l-.87-.15c-4.55-.14-8.96-.07-13.42.88-1.51-8.2-4.51-16.3-9.72-22.89l-.81 1.57c-.52.99-1.02 1.99-1.52 2.99.43-2.12.96-4.21 1.78-6.21z" fill="#D8E1EB"/><path d="M101.5.37c1.53 1.85 3.07 3.69 4.5 5.61 1.06 2.65 1.97 5.35 3.02 8a64.06 64.06 0 0 0-2.87-2.84c-.24 2.56-.41 5.1-.29 7.67-1.05 1.08-2.1 2.16-3.14 3.26-1.44-2.36-3.22-4.43-5.16-6.4.11-1.94.11-3.89.17-5.83.64-3.48 1.6-6.62 3.77-9.47z" fill="#A74A7C"/><path d="M72.59 2.68c5.21 6.59 8.21 14.69 9.72 22.89-1.85.58-3.66 1.24-5.43 2.02-1.58-6.16-1.08-12.47-3.26-18.35-.59-1.67-1.25-3.32-1.84-4.99l.81-1.57z" fill="#A7417A"/><path d="M6.97 6.32c.01.98.03 1.97.08 2.95l.12 1.35C5.32 8.87 3.36 7.26 1.34 5.71c2.09-.34 3.71-.44 5.63.61z" fill="#EA9D98"/><path d="M71.78 4.25c.59 1.67 1.25 3.32 1.84 4.99 2.18 5.88 1.68 12.19 3.26 18.35-3.18 2.31-6.13 4.95-8.9 7.73-.62-6.52.49-12.63 1.13-19.07.32-2.98.54-6.08 1.15-9.01.5-1 1-2 1.52-2.99z" fill="#D353A1"/><path d="M7.17 10.62c1.95 1.92 3.96 3.79 5.95 5.66a27.35 27.35 0 0 1-1.95 2.95c-3.82-4.26-7.69-8.06-9.83-13.52 2.02 1.55 3.98 3.16 5.83 4.91z" fill="#DB4E3D"/><path d="M106 5.98c4.32 4.96 7.62 10.55 11.2 16.04 2.67.22 5.34.51 8.02.69-2.49-.01-4.93.12-7.41.25.57 1.61 1.11 3.23 1.7 4.83.75 2.07 1.48 4.15 2.18 6.24.73 2.65 1.44 5.32 1.92 8.03.05 1.55.07 3.11.07 4.66-.08 6.69.53 13.31 1.38 19.94-.21.93-.42 1.86-.62 2.8l-.18.96c-.72-3.2-1.11-6.87-2.68-9.78-1.16-1.03-3.27-1.2-4.73-1.69-.41-1.02-.76-2.04-1.05-3.1-2.97 1.12-4.84 2.59-7.81.39l.9.09c1.52-.02 3.03-.09 4.54-.23l.29-.85c3.72-8.32 2.76-16.77.63-25.34-1.2-5.52-3.05-10.76-5.33-15.93-1.05-2.65-1.96-5.35-3.02-8z" fill="#CFD2D7"/><path d="M6.97 6.32c2.55 1.34 4.92 2.94 7.31 4.54l-1.93 1.39c-1.78-.97-3.52-2.01-5.3-2.98-.05-.98-.07-1.97-.08-2.95z" fill="#DB6D69"/><path d="M7.05 9.27c1.78.97 3.52 2.01 5.3 2.98 3.16 2.22 6.26 4.53 9.22 7.02-.79.94-1.57 1.89-2.36 2.83-2.06-1.9-4.04-3.9-6.09-5.82-1.99-1.87-4-3.74-5.95-5.66l-.12-1.35z" fill="#FFFDEC"/><path d="M14.28 10.86c3.52 1.99 6.97 4.09 10.47 6.13-.89.64-1.78 1.27-2.67 1.91l-.51.37c-2.96-2.49-6.06-4.8-9.22-7.02l1.93-1.39z" fill="#D37C18"/><path d="M106.15 11.14c.98.92 1.95 1.86 2.87 2.84 2.28 5.17 4.13 10.41 5.33 15.93 2.13 8.57 3.09 17.02-.63 25.34-1.33-7.72-2.08-15.38-4.02-22.98-1.06-4.56-2.7-8.94-3.84-13.46-.12-2.57.05-5.11.29-7.67z" fill="#973766"/><path d="M13.12 16.28c2.05 1.92 4.03 3.92 6.09 5.82.59.53 1.19 1.04 1.8 1.55-.86 1.23-1.66 2.49-2.47 3.75l-.59-.47c-2.35-2.49-4.46-5.19-6.78-7.7.72-.94 1.36-1.93 1.95-2.95z" fill="#D39C02"/><path d="M97.56 15.67c1.94 1.97 3.72 4.04 5.16 6.4 1.29 4.14 1.97 8.37 2.6 12.65.93 7.43 3.98 13.97 3.57 21.61l-.9-.09c-1.85-1.23-3.47-2.82-5.2-4.22 1.11-.32 2.22-.61 3.35-.88-3.07-8.81-5.17-18.17-9.54-26.3.04-3.12.56-6.09.96-9.17z" fill="#CC4381"/><path d="M24.75 16.99c1.7.99 3.43 1.94 5.16 2.89.61 1.31 1.46 2.15 2.55 2.53-.18 1.02-.35 2.05-.52 3.07l-1.2.29c-1.96-1.65-3.86-3.37-5.91-4.91-.9-.68-1.81-1.34-2.75-1.96.89-.64 1.78-1.27 2.67-1.91z" fill="#AAD506"/><path d="M21.57 19.27l.51-.37c.94.62 1.85 1.28 2.75 1.96-.64.35-1.28.71-1.9 1.09-.49.69-.97 1.39-1.44 2.09l-.48-.39c-.61-.51-1.21-1.02-1.8-1.55.79-.94 1.57-1.89 2.36-2.83z" fill="#E6EC80"/><path d="M105.86 18.81c1.14 4.52 2.78 8.9 3.84 13.46 1.94 7.6 2.69 15.26 4.02 22.98l-.29.85c-1.51.14-3.02.21-4.54.23.41-7.64-2.64-14.18-3.57-21.61-.63-4.28-1.31-8.51-2.6-12.65 1.04-1.1 2.09-2.18 3.14-3.26z" fill="#B5336E"/><path d="M29.91 19.88c1.46.18 2.85.39 3.1 2.12l-.55.41c-1.09-.38-1.94-1.22-2.55-2.53z" fill="#A8C089"/><path d="M22.93 21.95c.62-.38 1.26-.74 1.9-1.09 2.05 1.54 3.95 3.26 5.91 4.91-.84 1.47-1.64 2.97-2.45 4.46-2.25-2.09-4.44-4.23-6.8-6.19.47-.7.95-1.4 1.44-2.09z" fill="#FFFFFA"/><path d="M32.46 22.41l.55-.41c3.14 1.41 6.01 3.33 9.1 5.02.43 1.19.9 2.38 1.36 3.56-.42.74-.84 1.49-1.26 2.24-1.01-.66-2.02-1.34-3.02-2.01-.97-.72-1.94-1.43-2.92-2.13-1.43-1.09-2.85-2.19-4.33-3.2.17-1.02.34-2.05.52-3.07z" fill="#03CA3F"/><path d="M117.81 22.96c2.48-.13 4.92-.26 7.41-.25 8.45.74 17.96 2.13 25.26 6.69-2.16-.3-4.35-.5-6.53-.7 2.83 1.72 6.14 3.49 8.33 6.02 2.41 2.72 3.65 6.23 5.02 9.53-2.33.95-4.69 1.76-7.21 2.08-6.01-3.09-11.78-6.6-17.81-9.67-4.05-2.09-5.8-5.88-9.11-8.63-1.2-.21-2.45-.2-3.66-.24-.59-1.6-1.13-3.22-1.7-4.83zm14.44 9.62c2.62 2.39 5.37 4.89 8.49 6.63 3.6 1.85 8.53 1.58 12.49 1.66-1.22-2.8-2.23-5.42-4.71-7.38-4.29-3.58-10.88-4.49-16.28-4.15-.04 1.07-.04 2.15.01 3.24z" fill="#C94BE4"/><path d="M21.01 23.65l.48.39c2.36 1.96 4.55 4.1 6.8 6.19.17 1.03.35 2.07.52 3.11l-.78-.02c-3.58.33-6.54-4.22-9.49-5.92.81-1.26 1.61-2.52 2.47-3.75z" fill="#9DEB05"/><path d="M95.73 24.69l-.16.79c-2.61 1.25-4.58 2.5-6.27 4.91-3.22 4.42-7.61 7.7-10.9 12.02-3.69 4.8-3.24 11.37-1.76 16.92.39 1.25.83 2.49 1.29 3.73.57 1.42 1.17 2.83 1.71 4.27-.05.9-.11 1.8-.17 2.7-1.13-.64-2.25-1.29-3.37-1.94l1.9-.05c-2.27-3.85-5.6-7.53-5.98-12.04-.58-6.52-.96-13.14-.55-19.68-2.1 1.16-4.21 2.18-6.59 2.59 1.02-1.21 2.03-2.42 3.1-3.59 2.77-2.78 5.72-5.42 8.9-7.73 1.77-.78 3.58-1.44 5.43-2.02 4.46-.95 8.87-1.02 13.42-.88z" fill="#DB55EF"/><path d="M95.73 24.69l.87.15c4.37 8.13 6.47 17.49 9.54 26.3-1.13.27-2.24.56-3.35.88-1.25-1.07-2.53-2.09-3.81-3.12-.46-1.13-.91-2.26-1.41-3.38-1.15-6.61-1.89-13.32-2-20.04l.16-.79z" fill="#E64691"/><path d="M30.74 25.77l1.2-.29c1.48 1.01 2.9 2.11 4.33 3.2-1.36-.48-2.74-.91-4.14-1.28-.47 1.2-.93 2.4-1.43 3.58 1.69 2.07 3.36 4.15 5.19 6.11.93 1.11 1.84 2.25 2.76 3.38l.04.94c-4.45-1.68-6.02-5.43-9.88-8.07-.17-1.04-.35-2.08-.52-3.11.81-1.49 1.61-2.99 2.45-4.46z" fill="#62F5B7"/><path d="M95.57 25.48c.11 6.72.85 13.43 2 20.04-1.23-1.98-2.66-3.82-4.1-5.65-1.67 1.21-2.48 1.91-2.48 4.14-.75 6.9 4.68 13.9 11.92 13.41.38.92.78 1.83 1.2 2.73-6.33.41-12.13-1.05-15-7.25-.2-4.06-.31-8.16-.11-12.23 1.99-2.72 4.39-5.09 6.36-7.82-8.09.2-14.15 6.66-17 13.71-.94 2-.48 3.81-.16 5.87-.46 2.31-.97 4.61-1.56 6.9-1.48-5.55-1.93-12.12 1.76-16.92 3.29-4.32 7.68-7.6 10.9-12.02 1.69-2.41 3.66-3.66 6.27-4.91z" fill="#B931D2"/><path d="M17.95 26.93l.59.47c2.95 1.7 5.91 6.25 9.49 5.92-.22 1.86-.22 3.72-.27 5.59-3.43-3.87-6.75-7.81-9.81-11.98z" fill="#73B355"/><path d="M32.13 27.4c1.4.37 2.78.8 4.14 1.28.98.7 1.95 1.41 2.92 2.13.74 1.1 1.46 2.21 2.2 3.31-1 1.69-1.94 3.4-2.96 5.07-.87-.67-1.72-1.37-2.54-2.1-1.83-1.96-3.5-4.04-5.19-6.11.5-1.18.96-2.38 1.43-3.58z" fill="#FEFFFF"/><path d="M42.11 27.02c4.12 2.24 8.24 4.45 12.24 6.92.18 1.08.36 2.17.54 3.26-3.64-2.54-7.3-4.93-11.42-6.62-.46-1.18-.93-2.37-1.36-3.56z" fill="#3392A8"/><path d="M123.17 28.03c3.31 2.75 5.06 6.54 9.11 8.63 6.03 3.07 11.8 6.58 17.81 9.67 2.91 1.71 4.64 4.31 6.23 7.21-1.74.67-3.49 1.33-5.28 1.88.56-.84 1.12-1.68 1.69-2.53-2.29-2.09-4.38-4.13-7.43-5.06-3.8-1.21-7.09-3.2-10.44-5.31l-.18 1.58c-3.35-4.68-7.19-8.66-12.99-10.07-.7-2.09-1.43-4.17-2.18-6.24 1.21.04 2.46.03 3.66.24z" fill="#A641B7"/><path d="M150.48 29.4c7.07 4.43 11.76 11.16 16.04 18.13 5.45 8.9 12.46 15.95 19.24 23.72 7.16 8.25 10.69 18.87 10.93 29.71.03 6.76 1.83 13.29 1.83 20.04.03 5.5.08 11.31-.93 16.72-.53 3.05-1.46 6.02-1.99 9.08-.95 5.49-.6 11.03-1.3 16.56-.93-5.3-2.96-9.83-1.96-15.32-2.58 1.41-5.2 2.77-7.85 4.08.46-2.27.73-4.58 1.2-6.85-1.15-.83-2.3-1.67-3.47-2.48 2.73.07 5.43-.2 8.13-.54-3.62-3.58-7.95-4.27-12.49-6.07-9.72-7.85-14.85-19.96-14.13-32.4l.04-.87 2.92-2.08.65 1 .31.6c-2.32 5.06-.72 9.62.32 14.78 1.78 7.23 6.51 13.05 12.65 17.11-2.09-4.43-4.36-8.39-5.9-13.03-1.17-3.42-1.78-6.93-2.65-10.42 2.48 4.63 4.24 9.58 6.78 14.17 2.41 4.41 5.76 7.91 9.41 11.31 1.29 1.22 2.58 2.44 3.86 3.67 1.67-6.32 3.3-13.07 3.18-19.64-.16-1.64-.28-4.21-1.82-5.2-4.19-3.08-10.21-3.92-12.87-8.83-2.32-4.51-3.69-9.49-5.83-14.1-2.27-4.97-.17-9.98-3.24-14.78.46-1.12.92-2.24 1.39-3.36-3.57 1.73-6.91 3.56-10.92 4.01-8.46.72-16.61.49-24.11-3.93-4.69-2.43-6.4-6.67-9.14-10.87-.39.61-.78 1.22-1.16 1.83-.33-2.32-.5-4.68-.7-7.02 1.46 1.19 2.96 2.38 4.35 3.64 3.62 3.77 7.03 8.05 11.91 10.25 6.15 2.83 13.23 3.42 19.92 3.25 2.97-.52 5.58-1.79 8.16-3.27-2.79-2.63-5.94-4.9-8.58-7.67-1.49-1.54-1.74-3.41-1.97-5.43.04-2.27-.11-4.68-.47-6.91-1.3.52-2.6 1.04-3.9 1.55-1.59-2.9-3.32-5.5-6.23-7.21 2.52-.32 4.88-1.13 7.21-2.08-1.37-3.3-2.61-6.81-5.02-9.53-2.19-2.53-5.5-4.3-8.33-6.02 2.18.2 4.37.4 6.53.7zm44.56 76.53c-.06-3.14.36-7.16-1.18-9.98-1.86-3.17-4.82-5.82-7.22-8.61-4.23-4.63-6.93-9.96-11.58-14.24 1.95 8.18 6.76 13.82 11.02 20.86 2.61 4.29 5.48 8.33 8.96 11.97z" fill="#C339DE"/><path d="M132.24 29.34c5.4-.34 11.99.57 16.28 4.15 2.48 1.96 3.49 4.58 4.71 7.38-3.96-.08-8.89.19-12.49-1.66-3.12-1.74-5.87-4.24-8.49-6.63-.05-1.09-.05-2.17-.01-3.24z" fill="#E073F4"/><path d="M39.19 30.81c1 .67 2.01 1.35 3.02 2.01 4.45 2.69 8.81 5.23 12.25 9.23-3.72-2.17-7.23-4.65-10.89-6.91-.76 1.56-1.69 3.26-1.93 4.99.25 1.26.84 2.5 1.4 3.65-1.42-1.18-2.92-2.22-4.39-3.31-.92-1.13-1.83-2.27-2.76-3.38.82.73 1.67 1.43 2.54 2.1 1.02-1.67 1.96-3.38 2.96-5.07-.74-1.1-1.46-2.21-2.2-3.31z" fill="#8AE3EB"/><path d="M43.47 30.58c4.12 1.69 7.78 4.08 11.42 6.62.17 1.19.32 2.39.45 3.59l-.43.62-.45.64c-3.44-4-7.8-6.54-12.25-9.23.42-.75.84-1.5 1.26-2.24z" fill="#18AFDE"/><path d="M28.03 33.32l.78.02c3.86 2.64 5.43 6.39 9.88 8.07l.03.72c-.81 1.22-1.64 2.43-2.47 3.64-2.12-1.55-4.33-2.96-6.41-4.58-.7-.75-1.4-1.51-2.08-2.28.05-1.87.05-3.73.27-5.59z" fill="#00D58B"/><path d="M95.36 32.85c-1.97 2.73-4.37 5.1-6.36 7.82-1.32 3.7-1.13 7.27-1.07 11.12-1.29-.44-2.57-.89-3.85-1.34-.39.88-.78 1.75-1.18 2.62-.88-1.24-1.74-2.49-2.64-3.72-.7 1.01-1.39 2.04-2.06 3.08-.32-2.06-.78-3.87.16-5.87 2.85-7.05 8.91-13.51 17-13.71z" fill="#6B1D7C"/><path d="M54.35 33.94c2.68 1.58 5.32 3.22 8.08 4.66 1.11.59 2.21 1.19 3.31 1.79-.22.95-.46 1.89-.72 2.83-2.56-1.61-5.15-3.24-7.87-4.59-.63.7-1.23 1.42-1.81 2.16-.13-1.2-.28-2.4-.45-3.59-.18-1.09-.36-2.18-.54-3.26z" fill="#6233A9"/><path d="M121.69 34.03c5.8 1.41 9.64 5.39 12.99 10.07 3.62 6.29 8.84 10.83 16.36 11.32 1.79-.55 3.54-1.21 5.28-1.88 1.3-.51 2.6-1.03 3.9-1.55.36 2.23.51 4.64.47 6.91-7.31-.46-13.96 2.81-21.42 1.85.37-1.48 1.28-3.06.47-4.55-1.69-3.31-4.76-6.01-7.29-8.7-2.5-2.65-5.4-4.29-8.84-5.44-.48-2.71-1.19-5.38-1.92-8.03z" fill="#DB4BEC"/><path d="M43.57 35.14c3.66 2.26 7.17 4.74 10.89 6.91-1.47 2.34-2.71 4.8-3.71 7.38-2.76-1.62-5.29-3.56-7.71-5.65-.56-1.15-1.15-2.39-1.4-3.65.24-1.73 1.17-3.43 1.93-4.99z" fill="#FFF"/><path d="M71.47 36.32c-.41 6.54-.03 13.16.55 19.68.38 4.51 3.71 8.19 5.98 12.04l-1.9.05c-1.36-.77-2.67-1.62-3.92-2.56-1.1-1.25-2.1-2.57-3.03-3.94-1.15-1.85-2.17-3.81-3.19-5.74l-.38-1.6c-.37-1.65-.72-3.3-1.12-4.95-.24-.95-.5-1.9-.76-2.85.45-1.07.9-2.14 1.32-3.23.26-.94.5-1.88.72-2.83-1.1-.6-2.2-1.2-3.31-1.79.81.12 1.63.23 2.45.31 2.38-.41 4.49-1.43 6.59-2.59z" fill="#CB30E8"/><path d="M57.15 38.63c2.72 1.35 5.31 2.98 7.87 4.59-.42 1.09-.87 2.16-1.32 3.23-2.91-1.72-5.79-3.49-8.79-5.04l.43-.62c.58-.74 1.18-1.46 1.81-2.16z" fill="#8711DD"/><path d="M38.65 40.47c1.47 1.09 2.97 2.13 4.39 3.31 2.42 2.09 4.95 4.03 7.71 5.65L50 51.56c-5.5-1.09-8.09-5.29-11.28-9.43l-.03-.72-.04-.94z" fill="#57B5F9"/><path d="M93.47 39.87c1.44 1.83 2.87 3.67 4.1 5.65.5 1.12.95 2.25 1.41 3.38 1.2 2.89 2.59 5.69 3.93 8.52-7.24.49-12.67-6.51-11.92-13.41 0-2.23.81-2.93 2.48-4.14z" fill="#DA52E9"/><path d="M29.84 41.19c2.08 1.62 4.29 3.03 6.41 4.58 3.51 3.75 5.95 7.81 10.85 10.01 2.23 3.51 4.49 6.19 7.8 8.73 2.25-.58 4.51-1.08 6.75-1.69-2.38 1.54-5.03 3.38-7.79 4.15-1.63.62-2.47-.52-3.7-1.35-2.31-2.96-4.38-6.07-6.97-8.82-4.67-5.02-8.71-10.55-13.35-15.61z" fill="#690B97"/><path d="M89 40.67c-.2 4.07-.09 8.17.11 12.23.15 2.11.29 4.21.42 6.32l-1.41-.58c-2.02-1.57-3.73-3.48-5.22-5.57.4-.87.79-1.74 1.18-2.62 1.28.45 2.56.9 3.85 1.34-.06-3.85-.25-7.42 1.07-11.12z" fill="#9B25A8"/><path d="M38.72 42.13c3.19 4.14 5.78 8.34 11.28 9.43-1 1.38-1.94 2.81-2.9 4.22-4.9-2.2-7.34-6.26-10.85-10.01.83-1.21 1.66-2.42 2.47-3.64z" fill="#2671DF"/><path d="M54.46 42.05l.45-.64c3 1.55 5.88 3.32 8.79 5.04.26.95.52 1.9.76 2.85-2.76-2.19-5.65-4.1-9.02-5.24-.97 2.12-2.17 4.53-2.38 6.87 1.15 3.41 4.93 6.1 7.52 8.46 1.62-1.76 3.31-3.45 5-5.14l.38 1.6c-1.02 2.31-2.17 4.55-3.69 6.58-.24-.4-.49-.8-.74-1.2-5.4-1.75-7.72-5.92-11.53-9.67l.75-2.13c1-2.58 2.24-5.04 3.71-7.38z" fill="#D076EF"/><path d="M123.61 42.06c3.44 1.15 6.34 2.79 8.84 5.44 2.53 2.69 5.6 5.39 7.29 8.7.81 1.49-.1 3.07-.47 4.55-3.19-1-6.17-1.95-8.51-4.48-2.65-2.92-4.65-6.43-7.08-9.55 0-1.55-.02-3.11-.07-4.66z" fill="#EE74F7"/><path d="M134.86 42.52c3.35 2.11 6.64 4.1 10.44 5.31 3.05.93 5.14 2.97 7.43 5.06-.57.85-1.13 1.69-1.69 2.53-7.52-.49-12.74-5.03-16.36-11.32l.18-1.58z" fill="#8B289C"/><path d="M55.44 44.06c3.37 1.14 6.26 3.05 9.02 5.24.4 1.65.75 3.3 1.12 4.95-1.69 1.69-3.38 3.38-5 5.14-2.59-2.36-6.37-5.05-7.52-8.46.21-2.34 1.41-4.75 2.38-6.87z" fill="#FFFEFF"/><path d="M123.68 46.72c2.43 3.12 4.43 6.63 7.08 9.55 2.34 2.53 5.32 3.48 8.51 4.48 7.46.96 14.11-2.31 21.42-1.85.23 2.02.48 3.89 1.97 5.43 2.64 2.77 5.79 5.04 8.58 7.67-2.58 1.48-5.19 2.75-8.16 3.27.69-.81 1.38-1.62 2.08-2.43-2.81-2.06-6.12-3.96-8.36-6.64-.85-1.68-.4-4.15-.49-6.01-4.63.96-9.62 2.09-14.35 1.93-4.12-.15-8.03-1.89-11.94-3.1.39.93.8 1.84 1.23 2.75-1.39-1.26-2.89-2.45-4.35-3.64.2 2.34.37 4.7.7 7.02 2.87 8.82 10.37 16.02 19.06 19.05 8.97 2.28 17.57-1.87 24.88-6.73 3.07 4.8.97 9.81 3.24 14.78 2.14 4.61 3.51 9.59 5.83 14.1 2.66 4.91 8.68 5.75 12.87 8.83 1.54.99 1.66 3.56 1.82 5.2.12 6.57-1.51 13.32-3.18 19.64-1.28-1.23-2.57-2.45-3.86-3.67-.14-4.96-.8-10.13-3.12-14.58-1.65-3.12-4.33-4.87-7.22-6.71.07 3.35.31 6.68.93 9.98-2.54-4.59-4.3-9.54-6.78-14.17-1.38-2.86-2.96-5.61-4.42-8.44l-.31-.6c2.16.8 4.36 1.36 6.55 2.04-.74-5.69-1.31-11.08-4.35-16.1-1.62 3.6-2.91 7.29-4.2 11.01.45.68.9 1.37 1.35 2.05l-2.92 2.08.06-1.59c-2.78 1.9-5.37 4.05-8.11 6l-1.26.84-2.05.25c2.29-2.04 4.89-4 6.53-6.6 2.32-3.75 3.58-8.23 4.03-12.6-.69-.67-1.38-1.32-2.09-1.97-1.32 3.79-2.03 8.15-4.03 11.63-2.89 4.71-8.3 7.61-13.12 9.97l.22-1.58c1.13-1.64 2.26-3.28 3.4-4.91.57-.83 1.12-1.68 1.66-2.53l.18 2.3c3.78-4.92 3.56-10.51 6.29-16.05-3.12.01-6.27.03-9.39-.18-9.66-1.3-16.71-11.3-21.03-19.23-.85-6.63-1.46-13.25-1.38-19.94z" fill="#B430CA"/><path d="M80.26 49.35c.9 1.23 1.76 2.48 2.64 3.72 1.49 2.09 3.2 4 5.22 5.57-2.82-1.03-5.68-1.81-8.57-2.58-.53 2.34-1.11 4.66-1.62 7-.46-1.24-.9-2.48-1.29-3.73.59-2.29 1.1-4.59 1.56-6.9.67-1.04 1.36-2.07 2.06-3.08z" fill="#A3C7E4"/><path d="M98.98 48.9c1.28 1.03 2.56 2.05 3.81 3.12 1.73 1.4 3.35 2.99 5.2 4.22 2.97 2.2 4.84.73 7.81-.39.29 1.06.64 2.08 1.05 3.1 1.46.49 3.57.66 4.73 1.69 1.57 2.91 1.96 6.58 2.68 9.78.19 3.14.9 5.98 2.77 8.56 1.63 2.72 4.89 5.82 4.37 9.22-.07 1.74-1.63 2.79-2.68 4-1.83 1.77-3.26 3.84-4.63 5.98-2.42 3.86-5.53 7.03-8.18 10.72-3.15 4.3-5.93 8.47-9.98 12.03-4.16 3.67-9.54 5.89-14.91 7.09-5.33 1.19-10.61 1.24-15.95 2.22-4.71.84-9.12 2.42-13.87 3.11-6.3.94-12.22.12-18.76.2-6.52-7.6-11.81-16.83-14-26.65 4.28-8.07 9.25-15.63 14.17-23.3 3.31-5.09 6.25-11 11.57-14.26 4.81-2.89 9.99-5.17 14.97-7.75.93 1.37 1.93 2.69 3.03 3.94-3.67 4.41-7.95 7.82-12.74 10.93-11.42 7.78-20.12 19.72-23.87 33.04-.66 3.05-1.13 7.46.74 10.19 4.55 5.09 11.51 6.57 18.06 6.82 4.55.16 8.21-1.46 12.51-2.53 4.99-1.27 10.03-.87 15.22-1.88 4.41-.84 8.74-2.13 13.09-3.21-.1-.51-.19-1.02-.29-1.53 3.31-1.63 6.38-2.87 8.13-6.36 1.52-3.28 2.78-7.65 1.17-11.11-.57-1.93-1.68-3.7-1.07-5.71 1.04-4.23 3.29-7.73 3.86-12.19.36-3.07.33-6.41-.67-9.36-.93-2.69-3.48-3.88-5.85-5.08-3.72-1.69-7.52-3.44-11.47-4.52-3.12-.9-5.85.43-8.84 1.22-.19 1.03-.36 2.05-.52 3.08-.54-1.44-1.14-2.85-1.71-4.27.51-2.34 1.09-4.66 1.62-7 2.89.77 5.75 1.55 8.57 2.58l1.41.58c-.13-2.11-.27-4.21-.42-6.32 2.87 6.2 8.67 7.66 15 7.25-.42-.9-.82-1.81-1.2-2.73-1.34-2.83-2.73-5.63-3.93-8.52z" fill="#E9EAF0"/><path d="M50 51.56c3.81 3.75 6.13 7.92 11.53 9.67.25.4.5.8.74 1.2l-.62.39c-2.24.61-4.5 1.11-6.75 1.69-3.31-2.54-5.57-5.22-7.8-8.73.96-1.41 1.9-2.84 2.9-4.22z" fill="#B105E8"/><path d="M65.96 55.85c1.02 1.93 2.04 3.89 3.19 5.74-4.98 2.58-10.16 4.86-14.97 7.75-5.32 3.26-8.26 9.17-11.57 14.26-4.92 7.67-9.89 15.23-14.17 23.3-1.17 1.55-2.5 2.93-4.02 4.13l-2.12.46c3.38-6.61 7.42-12.83 10.79-19.44 4.72-9.06 9.87-19.1 17.07-26.43 1.23.83 2.07 1.97 3.7 1.35 2.76-.77 5.41-2.61 7.79-4.15l.62-.39c1.52-2.03 2.67-4.27 3.69-6.58z" fill="#A6CFE6"/><path d="M130.02 59.02c3.91 1.21 7.82 2.95 11.94 3.1 4.73.16 9.72-.97 14.35-1.93.09 1.86-.36 4.33.49 6.01 2.24 2.68 5.55 4.58 8.36 6.64-.7.81-1.39 1.62-2.08 2.43-6.69.17-13.77-.42-19.92-3.25-4.88-2.2-8.29-6.48-11.91-10.25-.43-.91-.84-1.82-1.23-2.75zm5.66 3.86c1.52 1.62 3.15 3.97 5.27 4.81 2.08.51 4.48.11 6.6.04-.32-1.55-.63-3.1-.95-4.65-3.66-.33-7.25-.41-10.92-.2z" fill="#8B1E9E"/><path d="M89 63.03c3.95 1.08 7.75 2.83 11.47 4.52 2.37 1.2 4.92 2.39 5.85 5.08 1 2.95 1.03 6.29.67 9.36-.57 4.46-2.82 7.96-3.86 12.19-.61 2.01.5 3.78 1.07 5.71 1.61 3.46.35 7.83-1.17 11.11-1.75 3.49-4.82 4.73-8.13 6.36.1.51.19 1.02.29 1.53-4.35 1.08-8.68 2.37-13.09 3.21-5.19 1.01-10.23.61-15.22 1.88-4.3 1.07-7.96 2.69-12.51 2.53-6.55-.25-13.51-1.73-18.06-6.82-1.87-2.73-1.4-7.14-.74-10.19 3.75-13.32 12.45-25.26 23.87-33.04 4.79-3.11 9.07-6.52 12.74-10.93 1.25.94 2.56 1.79 3.92 2.56 1.12.65 2.24 1.3 3.37 1.94.06-.9.12-1.8.17-2.7.16-1.03.33-2.05.52-3.08 2.99-.79 5.72-2.12 8.84-1.22zm-4.36 10.75c-6.85 3.43-6.96 14.21-.45 18 4.97 3.22 12.04 1.59 14.86-3.65 3.81-4.9.3-13.22-5.35-14.92-2.92-1.16-6.3-.93-9.06.57z" fill="#F6F7FB"/><path d="M128.76 63.32c2.74 4.2 4.45 8.44 9.14 10.87 7.5 4.42 15.65 4.65 24.11 3.93 4.01-.45 7.35-2.28 10.92-4.01-.47 1.12-.93 2.24-1.39 3.36-7.31 4.86-15.91 9.01-24.88 6.73-8.69-3.03-16.19-10.23-19.06-19.05.38-.61.77-1.22 1.16-1.83z" fill="#E360F0"/><path d="M135.68 62.88c3.67-.21 7.26-.13 10.92.2.32 1.55.63 3.1.95 4.65-2.12.07-4.52.47-6.6-.04-2.12-.84-3.75-3.19-5.27-4.81z" fill="#5F126F"/><path d="M125.06 66.66c4.32 7.93 11.37 17.93 21.03 19.23 2.3 4.64 2.97 8.77 2.92 13.93-.54.85-1.09 1.7-1.66 2.53-.2-3.85.15-8.64-1.63-12.14-1.89-3.12-6.66-4.45-9.67-6.31-5.68-3.13-8.46-9.09-11.61-14.44.2-.94.41-1.87.62-2.8z" fill="#9CA5C7"/><path d="M124.26 70.42l.18-.96c3.15 5.35 5.93 11.31 11.61 14.44 3.01 1.86 7.78 3.19 9.67 6.31 1.78 3.5 1.43 8.29 1.63 12.14-1.14 1.63-2.27 3.27-3.4 4.91l-1.07 1.35c-8.54 4.62-16.2 10.22-22.56 17.6-9.48 4.9-19.66 8.28-30.23 9.78-12.29 1.47-24.45 4.26-36.37 7.54-4.52-2.63-8.04-5.91-11.28-9.98 6.54-.08 12.46.74 18.76-.2 4.75-.69 9.16-2.27 13.87-3.11 5.34-.98 10.62-1.03 15.95-2.22 5.37-1.2 10.75-3.42 14.91-7.09 4.05-3.56 6.83-7.73 9.98-12.03 2.65-3.69 5.76-6.86 8.18-10.72 1.37-2.14 2.8-4.21 4.63-5.98 1.05-1.21 2.61-2.26 2.68-4 .52-3.4-2.74-6.5-4.37-9.22-1.87-2.58-2.58-5.42-2.77-8.56z" fill="#DDDBE6"/><path d="M84.64 73.78c2.76-1.5 6.14-1.73 9.06-.57 5.65 1.7 9.16 10.02 5.35 14.92-2.82 5.24-9.89 6.87-14.86 3.65-6.51-3.79-6.4-14.57.45-18zm1.96.77c-1.04 1.43-2.78 2.65-1.78 4.59.95 2.32 5.04 2.3 7.1 1.95 2.48-.28 2.53-2.05 3.39-3.92-1.64-1.08-3.27-3.06-5.36-2.84-1.12.03-2.23.1-3.35.22zm-.27 9.62c-.88.47-1.62 1.17-2.23 2.1.24 4.42 6.52 6.13 9.68 3.5 1.87-1.01 1.58-2.72 1.39-4.53-2.2-2.09-6.15-2.08-8.84-1.07z" fill="#111212"/><path d="M175.06 73.1c4.65 4.28 7.35 9.61 11.58 14.24 2.4 2.79 5.36 5.44 7.22 8.61 1.54 2.82 1.12 6.84 1.18 9.98-3.48-3.64-6.35-7.68-8.96-11.97-4.26-7.04-9.07-12.68-11.02-20.86z" fill="#A026BC"/><path d="M89.95 74.33c2.09-.22 3.72 1.76 5.36 2.84-3.07.3-6.15.49-9.22.71l.51-3.33c1.12-.12 2.23-.19 3.35-.22z" fill="#D2D2D2"/><path d="M86.6 74.55l-.51 3.33c3.07-.22 6.15-.41 9.22-.71-.86 1.87-.91 3.64-3.39 3.92-2.06.35-6.15.37-7.1-1.95-1-1.94.74-3.16 1.78-4.59z" fill="#5D5D5D"/><path d="M86.33 84.17c2.69-1.01 6.64-1.02 8.84 1.07.19 1.81.48 3.52-1.39 4.53-3.16 2.63-9.44.92-9.68-3.5.61-.93 1.35-1.63 2.23-2.1z" fill="#404040"/><path d="M146.09 85.89c3.12.21 6.27.19 9.39.18-2.73 5.54-2.51 11.13-6.29 16.05l-.18-2.3c.05-5.16-.62-9.29-2.92-13.93z" fill="#971BAA"/><path d="M160.88 87.24c.71.65 1.4 1.3 2.09 1.97-.45 4.37-1.71 8.85-4.03 12.6-1.64 2.6-4.24 4.56-6.53 6.6l2.05-.25c-.56.36-1.12.72-1.68 1.07-.87.52-1.76.99-2.66 1.4-1.48.2-2.96.41-4.44.64-.92-.91-1.85-1.8-2.8-2.66l1.07-1.35-.22 1.58c4.82-2.36 10.23-5.26 13.12-9.97 2-3.48 2.71-7.84 4.03-11.63z" fill="#E57CEF"/><path d="M169.54 87.77c3.04 5.02 3.61 10.41 4.35 16.1-2.19-.68-4.39-1.24-6.55-2.04l-.65-1c-.45-.68-.9-1.37-1.35-2.05 1.29-3.72 2.58-7.41 4.2-11.01z" fill="#9627AA"/><path d="M163.83 101.32l-.06 1.59-.04.87c-1.03 3.25-2.81 6.82-2.92 10.23.03 3.13.89 6.33 1.81 9.31-3.21-5.06-5.29-10.24-6.9-16 2.74-1.95 5.33-4.1 8.11-6z" fill="#9716AB"/><path d="M167.65 102.43c1.46 2.83 3.04 5.58 4.42 8.44.87 3.49 1.48 7 2.65 10.42 1.54 4.64 3.81 8.6 5.9 13.03-6.14-4.06-10.87-9.88-12.65-17.11-1.04-5.16-2.64-9.72-.32-14.78z" fill="#EE75F7"/><path d="M163.73 103.78c-.72 12.44 4.41 24.55 14.13 32.4-1.92-.69-3.85-1.33-5.75-2.02-4.33-2.63-7.02-6.54-9.49-10.84-.92-2.98-1.78-6.18-1.81-9.31.11-3.41 1.89-6.98 2.92-10.23z" fill="#B41BC8"/><path d="M28.44 106.9c2.19 9.82 7.48 19.05 14 26.65 3.24 4.07 6.76 7.35 11.28 9.98 1 .64 2 1.28 3 1.93.41.61.81 1.22 1.2 1.84l-1.79-.56c-2.86-.8-6.06-1.9-9.03-1.8-1.67.03-3.17 1.79-4.41 2.79-3.67 3.54-8.6 5.85-13.32 7.65-4.43 1.38-7.29-2.15-9.87-5.11.72-1.16 1.44-2.31 2.11-3.49.96 1.97 1.55 4.03 3.89 4.69 2.94 1.25 4.95-3.02 5.76-5.18 1.9-4.57-1.97-8.87-5.93-10.51-2.4-.57-5.21.26-7.59.69-1.17.26-2.35.52-3.52.77 2.45-3.78 5.21-7.04 6.37-11.43 1.3-4.94 2.95-9.76 3.83-14.78 1.52-1.2 2.85-2.58 4.02-4.13z" fill="#B64DDB"/><path d="M142.88 108.61c.95.86 1.88 1.75 2.8 2.66-1.09 3.53-1.44 7.27-2.41 10.88-2.05 7.56-5.79 14.39-10.63 20.52-2.34 3.22-4.91 5.62-4.33 9.96.51 2.48 1.06 4.95 1.41 7.46l.09 2.16c-1.99-2.45-4.1-4.79-5.92-7.39-.42-2.9.56-5.51 1.72-8.11.83-.86 1.7-1.66 2.56-2.48 5.54-4.26 8.96-10.46 10.95-17.05.99-3.3.8-6.27-.22-9.53-4.5 1.72-7.69 4.89-11.01 8.22-4.83 4.74-10.11 9.84-16.37 12.59-4.15 1.79-8.56 3.02-12.95 4.01-8.26 1.88-16.54 1.09-24.76 3.36-5.04 1.38-9.89 2.57-15.16 1.66l-.73-.23c-.39-.62-.79-1.23-1.2-1.84 6.47.45 11.79-2.04 18.23-2.52 13.35-1.25 26.68-2.24 38.39-9.49 3.07-1.74 5.04-4.37 6.98-7.24 6.36-7.38 14.02-12.98 22.56-17.6z" fill="#C7C0D6"/><path d="M154.46 108.16l1.26-.84c1.61 5.76 3.69 10.94 6.9 16 2.47 4.3 5.16 8.21 9.49 10.84.17 4.9.61 9.42-.84 14.21-1.14 3.79-3.41 6.92-6.19 9.68 2.91-6.89 6.12-12.75 3.88-20.47-.9-4.08-4.35-7.49-6.74-10.8-4.2-5.39-5.63-11.87-9.44-17.55.56-.35 1.12-.71 1.68-1.07z" fill="#ACB8D7"/><path d="M152.78 109.23c3.81 5.68 5.24 12.16 9.44 17.55 2.39 3.31 5.84 6.72 6.74 10.8-.53 3.05-.95 6.43-2.36 9.22-1.61 2.5-4.13 4.5-6.29 6.52-3.72 3.37-7.61 6.2-12.62 7.28-3.04.66-6.1-.28-8.98-1.19-1.72-3.1-4.17-6.66-3.74-10.36.45-3.1 2.73-6.11 4.33-8.76 4.51-6.93 6.93-14.18 10.15-21.92 1.12-2.54.98-5.05.67-7.74.9-.41 1.79-.88 2.66-1.4z" fill="#ECE3F1"/><path d="M22.3 111.49l2.12-.46c-.88 5.02-2.53 9.84-3.83 14.78-1.16 4.39-3.92 7.65-6.37 11.43-.7.15-1.4.31-2.09.47.05-2.05.07-4.1.18-6.14 1.84-3.72 3.47-7.44 4.49-11.49 1.61-3.01 3.45-5.85 5.5-8.59z" fill="#9B5DCD"/><path d="M145.68 111.27c1.48-.23 2.96-.44 4.44-.64.31 2.69.45 5.2-.67 7.74-3.22 7.74-5.64 14.99-10.15 21.92-1.6 2.65-3.88 5.66-4.33 8.76-.43 3.7 2.02 7.26 3.74 10.36-4-1.5-7.32-3.88-10.4-6.78-.58-4.34 1.99-6.74 4.33-9.96 4.84-6.13 8.58-12.96 10.63-20.52.97-3.61 1.32-7.35 2.41-10.88z" fill="#DCD4E7"/><path d="M177.92 115.06c2.89 1.84 5.57 3.59 7.22 6.71 2.32 4.45 2.98 9.62 3.12 14.58-3.65-3.4-7-6.9-9.41-11.31-.62-3.3-.86-6.63-.93-9.98z" fill="#9B2AAE"/><path d="M138.9 117.69c1.02 3.26 1.21 6.23.22 9.53-1.99 6.59-5.41 12.79-10.95 17.05 2.62-4.44 7.3-9.12 6.11-14.57-6.12 2.92-10.72 7.71-16.62 10.97-6.3 3.52-12.31 6.69-19.67 7.24-11.27.97-22.25 1.84-33.02 5.6-2.08-2.01-4.15-4.08-6.32-5.98 5.27.91 10.12-.28 15.16-1.66 8.22-2.27 16.5-1.48 24.76-3.36 4.39-.99 8.8-2.22 12.95-4.01 6.26-2.75 11.54-7.85 16.37-12.59 3.32-3.33 6.51-6.5 11.01-8.22z" fill="#B5A7D2"/><path d="M16.8 120.08c-1.02 4.05-2.65 7.77-4.49 11.49-2.48 4.89-6.15 12.6-2.51 17.71 4.69 6.64 10.15 13.89 17.85 17.16 2.49 1.1 5.08.85 7.57-.1 5.07-1.86 9.59-5.98 14.19-8.85 3.61-2.34 7.5-3.99 11.48-5.59 1.44 1.11 2.91 2.18 4.38 3.24 3.71-1.29 7.45-2.73 11.27-3.62 6.95-1.52 13.53-.75 20.45-1.49 12.05-1.7 21.35-7.2 32.15-11.92-1.33 3.25-2.97 5.99-5.64 8.31.18-.99.35-1.99.49-3-10.23 3.74-20.19 7.41-31.2 8.04 3.23.29 6.46.65 9.69.94-8.31 2.52-15.8.37-24.38 1.7-4.05.55-7.82 1.99-11.48 3.77-1.61-.55-3.41-1.93-5.11-1.21-4.41 1.53-8.19 4.6-12.55 6.36-4.53 1.81-9.14 3.47-13.71 5.18-6.13 2.32-12.01.58-18.93.89-2.53-3.57-5.08-7.14-7.53-10.77-4.06-6.19-5.64-13.52-3.97-20.79 1.83-7.33 7.11-12.05 11.98-17.45z" fill="#6F55A4"/><path d="M120.32 126.21c-1.94 2.87-3.91 5.5-6.98 7.24-11.71 7.25-25.04 8.24-38.39 9.49-6.44.48-11.76 2.97-18.23 2.52-1-.65-2-1.29-3-1.93 11.92-3.28 24.08-6.07 36.37-7.54 10.57-1.5 20.75-4.88 30.23-9.78z" fill="#CFC4E8"/><path d="M134.28 129.7c1.19 5.45-3.49 10.13-6.11 14.57-.86.82-1.73 1.62-2.56 2.48-1.95 2.11-5.24 5.07-4.74 8.22.5 4.41 1.93 8.75 3.17 13-2.37-3.31-5.07-6.36-7.4-9.71a172.7 172.7 0 0 0-1.58-3.36c.93-1.34 1.86-2.69 2.85-3.99 1.91-1.42 3.85-2.86 5.59-4.49 2.67-2.32 4.31-5.06 5.64-8.31-10.8 4.72-20.1 10.22-32.15 11.92-6.92.74-13.5-.03-20.45 1.49-3.82.89-7.56 2.33-11.27 3.62-1.47-1.06-2.94-2.13-4.38-3.24-.94-.75-1.84-1.54-2.7-2.37-.74-.9-1.4-1.84-2.06-2.79l1.79.56.73.23c2.17 1.9 4.24 3.97 6.32 5.98 10.77-3.76 21.75-4.63 33.02-5.6 7.36-.55 13.37-3.72 19.67-7.24 5.9-3.26 10.5-8.05 16.62-10.97z" fill="#9683B2"/><path d="M12.31 131.57c-.11 2.04-.13 4.09-.18 6.14.69-.16 1.39-.32 2.09-.47 1.17-.25 2.35-.51 3.52-.77 1.15 1.12 2.31 2.24 3.42 3.4-2.26-.42-4.49-.89-6.78-1.19-.06 3.63-.13 7.27-.15 10.9 1.54.21 3.07.45 4.61.65-1.25.28-2.48.62-3.72.96 3.14 3.65 6.11 7 10.64 8.96 3.68 1.55 8.32 2.46 12.05.59 4.5-2.16 7.96-6.45 11.86-9.09 2.34-1.66 5.75-1.72 8.52-2.12.86.83 1.76 1.62 2.7 2.37-3.98 1.6-7.87 3.25-11.48 5.59-4.6 2.87-9.12 6.99-14.19 8.85-2.49.95-5.08 1.2-7.57.1-7.7-3.27-13.16-10.52-17.85-17.16-3.64-5.11.03-12.82 2.51-17.71z" fill="#8947B9"/><path d="M172.11 134.16c1.9.69 3.83 1.33 5.75 2.02 4.54 1.8 8.87 2.49 12.49 6.07-2.7.34-5.4.61-8.13.54-2.03-1.12-4.03-2.26-6.13-3.24-1.34 4.35-2.04 8.43-4.01 12.53-1.53 3.14-3.38 6.13-5.02 9.22-2.03.2-4.06.27-6.08.39 1.44-1.14 2.84-2.31 4.1-3.64 2.78-2.76 5.05-5.89 6.19-9.68 1.45-4.79 1.01-9.31.84-14.21z" fill="#A239B6"/><path d="M25.33 135.78c3.96 1.64 7.83 5.94 5.93 10.51-.81 2.16-2.82 6.43-5.76 5.18-2.34-.66-2.93-2.72-3.89-4.69.04-2.32-.04-4.62-.45-6.91-1.11-1.16-2.27-2.28-3.42-3.4 2.38-.43 5.19-1.26 7.59-.69z" fill="#CB57EE"/><path d="M168.96 137.58c2.24 7.72-.97 13.58-3.88 20.47-1.26 1.33-2.66 2.5-4.1 3.64-2.4.45-4.75 1.03-7.01 1.96-2.08 1.48-4.44 4.12-7.06 4.34-6.75.23-12.9-2.73-17.19-7.9-.35-2.51-.9-4.98-1.41-7.46 3.08 2.9 6.4 5.28 10.4 6.78 2.88.91 5.94 1.85 8.98 1.19 5.01-1.08 8.9-3.91 12.62-7.28 2.16-2.02 4.68-4.02 6.29-6.52 1.41-2.79 1.83-6.17 2.36-9.22z" fill="#E8C4E4"/><path d="M14.38 138.68c2.29.3 4.52.77 6.78 1.19.41 2.29.49 4.59.45 6.91-.67 1.18-1.39 2.33-2.11 3.49l-.66-.04c-1.54-.2-3.07-.44-4.61-.65.02-3.63.09-7.27.15-10.9z" fill="#220047"/><path d="M176.09 139.55c2.1.98 4.1 2.12 6.13 3.24 1.17.81 2.32 1.65 3.47 2.48-.47 2.27-.74 4.58-1.2 6.85 2.65-1.31 5.27-2.67 7.85-4.08-1 5.49 1.03 10.02 1.96 15.32l-.08 1.1c-2.03-2.88-3.23-5.96-4.18-9.32-1.4 1.19-2.84 2.34-4.24 3.53-2.94 2.43-6.18 4.93-9.72 6.39-3.68 1.52-8.04 1.6-11.98 1.73-2.88-.12-5.67-.69-8.44-1.43 7.05-2.14 13.27-.93 19.82-4.88 3.47-2.24 7.11-6.2 7.63-10.43-.41-2.86-4.44-4.8-6.77-6-1.31 4.26-1.85 8.74-3.3 12.94-.77 2.74-3.66 3.37-5.98 4.31 1.64-3.09 3.49-6.08 5.02-9.22 1.97-4.1 2.67-8.18 4.01-12.53z" fill="#D048E9"/><path d="M123.99 143.42c-.14 1.01-.31 2.01-.49 3-1.74 1.63-3.68 3.07-5.59 4.49-2.03.57-4.1 1.03-6.15 1.52 1.36 9.47 7.25 17.89 9.62 27.06.67 2.17-.44 3.54-1.33 5.41-4-3.16-6.13-7.59-7.42-12.42-2.13-6.66-3.45-13.48-5.22-20.23-1.65.03-3.29.08-4.93.15-3.23-.29-6.46-.65-9.69-.94 11.01-.63 20.97-4.3 31.2-8.04z" fill="#533A72"/><path d="M176.34 144.05c2.33 1.2 6.36 3.14 6.77 6-.52 4.23-4.16 8.19-7.63 10.43-6.55 3.95-12.77 2.74-19.82 4.88l-.98-.26c-.24-.48-.48-.96-.71-1.45 2.26-.93 4.61-1.51 7.01-1.96 2.02-.12 4.05-.19 6.08-.39 2.32-.94 5.21-1.57 5.98-4.31 1.45-4.2 1.99-8.68 3.3-12.94z" fill="#EB85F9"/><path d="M47.1 144.94c2.97-.1 6.17 1 9.03 1.8.66.95 1.32 1.89 2.06 2.79-2.77.4-6.18.46-8.52 2.12-3.9 2.64-7.36 6.93-11.86 9.09-3.73 1.87-8.37.96-12.05-.59-4.53-1.96-7.5-5.31-10.64-8.96 1.24-.34 2.47-.68 3.72-.96l.66.04c2.58 2.96 5.44 6.49 9.87 5.11 4.72-1.8 9.65-4.11 13.32-7.65 1.24-1 2.74-2.76 4.41-2.79z" fill="#A14ACA"/><path d="M125.61 146.75c-1.16 2.6-2.14 5.21-1.72 8.11 1.05 6.61 3.45 13.12 8.6 17.63 3.38 2.86 6.94 5.48 10.15 8.55-.5 1-.98 2.01-1.42 3.04-2.81 1.33-5.7 2.49-8.66 3.42.85-1.77 2.82-3.56 1.54-5.59-2.83-4.97-7.12-8.99-10.06-13.94-1.24-4.25-2.67-8.59-3.17-13-.5-3.15 2.79-6.11 4.74-8.22z" fill="#BE90B9"/><path d="M195.6 146.8c-.13 8.47 1.61 16.96 2.19 25.42-2.45-1.53-4.92-2.93-6.81-5.18-2.05-2.52-3.6-5.54-5.18-8.37 1.4-1.19 2.84-2.34 4.24-3.53.95 3.36 2.15 6.44 4.18 9.32l.08-1.1c.7-5.53.35-11.07 1.3-16.56z" fill="#A93ECC"/><path d="M117.91 150.91c-.99 1.3-1.92 2.65-2.85 3.99a172.7 172.7 0 0 1 1.58 3.36c2.16 5.71 4.47 11.29 7.52 16.6 2.09 3.55 3.31 7.08 4.08 11.12-2.38-.16-4.79-.25-7.14-.54l-1.05-.54c.89-1.87 2-3.24 1.33-5.41-2.37-9.17-8.26-17.59-9.62-27.06 2.05-.49 4.12-.95 6.15-1.52z" fill="#825C8B"/><path d="M123.89 154.86c1.82 2.6 3.93 4.94 5.92 7.39.95 2.16 1.88 4.66 3.75 6.2 6.2 4.61 13.69 6.1 21.27 4.92-.14.64-.27 1.27-.41 1.91-4.16 3.21-8.49 6.44-13.2 8.8.44-1.03.92-2.04 1.42-3.04-3.21-3.07-6.77-5.69-10.15-8.55-5.15-4.51-7.55-11.02-8.6-17.63z" fill="#D4A1CB"/><path d="M61.51 156.66c1.7-.72 3.5.66 5.11 1.21-6.84 3.58-12.97 8.16-19.45 12.3-4.41 2.92-9.09 3.16-14.17 4.04-3.87.64-8.22-.95-11.95-1.99-1.96-.52-3.35-1.71-4.73-3.13 6.92-.31 12.8 1.43 18.93-.89 4.57-1.71 9.18-3.37 13.71-5.18 4.36-1.76 8.14-4.83 12.55-6.36z" fill="#5A3488"/><path d="M116.64 158.26c2.33 3.35 5.03 6.4 7.4 9.71 2.94 4.95 7.23 8.97 10.06 13.94 1.28 2.03-.69 3.82-1.54 5.59-4.23.49-7.76.15-11.46-2.06 2.35.29 4.76.38 7.14.54-.77-4.04-1.99-7.57-4.08-11.12-3.05-5.31-5.36-10.89-7.52-16.6z" fill="#A276A1"/><path d="M129.72 160.09c4.29 5.17 10.44 8.13 17.19 7.9 2.62-.22 4.98-2.86 7.06-4.34.23.49.47.97.71 1.45l.98.26c2.77.74 5.56 1.31 8.44 1.43-3.08 3-6.27 5.86-9.68 8.49.14-.64.27-1.27.41-1.91-7.58 1.18-15.07-.31-21.27-4.92-1.87-1.54-2.8-4.04-3.75-6.2l-.09-2.16z" fill="#E2AFD8"/></g></svg>